<?xml version="1.0" encoding="utf-8"?>
<!-- Generator: Adobe Illustrator 26.1.0, SVG Export Plug-In . SVG Version: 6.00 Build 0)  -->
<svg version="1.1" id="Layer_1" xmlns="http://www.w3.org/2000/svg" xmlns:xlink="http://www.w3.org/1999/xlink" x="0px" y="0px"
	 viewBox="0 0 2000 2000" style="enable-background:new 0 0 2000 2000;" xml:space="preserve">
<style type="text/css">
	.st0{fill:#29ABE2;}
	.st1{fill:#4D4D4D;}
</style>
<g>
	<g>
		<g>
			<g>
				<path class="st0" d="M937.14,996.77l-0.06,0.19h-0.08l0.2-0.59h0.09l0.2,0.59h-0.08l-0.06-0.19H937.14z M937.33,996.71
					l-0.06-0.17c-0.01-0.04-0.02-0.07-0.03-0.11h0c-0.01,0.04-0.02,0.07-0.03,0.11l-0.06,0.17H937.33z"/>
				<path class="st0" d="M937.62,996.43h-0.18v-0.07h0.44v0.07h-0.18v0.53h-0.08V996.43z"/>
			</g>
			<g>
				<path class="st0" d="M939.34,996.77l-0.06,0.19h-0.08l0.2-0.59h0.09l0.2,0.59h-0.08l-0.06-0.19H939.34z M939.53,996.71
					l-0.06-0.17c-0.01-0.04-0.02-0.07-0.03-0.11h0c-0.01,0.04-0.02,0.07-0.03,0.11l-0.06,0.17H939.53z"/>
				<path class="st0" d="M940.18,996.94c-0.03,0.01-0.08,0.03-0.16,0.03c-0.17,0-0.29-0.11-0.29-0.3c0-0.19,0.13-0.31,0.31-0.31
					c0.07,0,0.12,0.02,0.14,0.03l-0.02,0.06c-0.03-0.01-0.07-0.02-0.12-0.02c-0.14,0-0.23,0.09-0.23,0.24
					c0,0.15,0.08,0.24,0.23,0.24c0.05,0,0.09-0.01,0.13-0.02L940.18,996.94z"/>
				<path class="st0" d="M940.28,996.37c0.04-0.01,0.09-0.01,0.15-0.01c0.08,0,0.13,0.02,0.17,0.05c0.03,0.03,0.05,0.07,0.05,0.12
					c0,0.05-0.02,0.1-0.05,0.13c-0.04,0.04-0.11,0.07-0.18,0.07c-0.02,0-0.04,0-0.06-0.01v0.24h-0.08V996.37z M940.36,996.66
					c0.02,0,0.04,0.01,0.06,0.01c0.09,0,0.15-0.04,0.15-0.13c0-0.08-0.06-0.12-0.14-0.12c-0.03,0-0.06,0-0.07,0.01V996.66z"/>
			</g>
			<g>
				<path class="st0" d="M939.82,999.88c0.03,0.02,0.08,0.04,0.14,0.04c0.08,0,0.12-0.04,0.12-0.1c0-0.06-0.03-0.09-0.11-0.12
					c-0.1-0.03-0.16-0.08-0.16-0.17c0-0.09,0.08-0.16,0.19-0.16c0.06,0,0.1,0.01,0.13,0.03l-0.02,0.06
					c-0.02-0.01-0.06-0.03-0.11-0.03c-0.08,0-0.11,0.05-0.11,0.09c0,0.06,0.04,0.08,0.12,0.11c0.1,0.04,0.15,0.09,0.15,0.17
					c0,0.09-0.07,0.17-0.21,0.17c-0.06,0-0.12-0.02-0.15-0.04L939.82,999.88z"/>
			</g>
			<g>
				<path class="st0" d="M942.48,1000.79c0,0.2-0.12,0.31-0.28,0.31c-0.16,0-0.27-0.12-0.27-0.3c0-0.19,0.12-0.31,0.28-0.31
					C942.38,1000.49,942.48,1000.62,942.48,1000.79z M942.02,1000.8c0,0.13,0.07,0.24,0.19,0.24c0.12,0,0.19-0.11,0.19-0.25
					c0-0.12-0.06-0.24-0.19-0.24C942.09,1000.55,942.02,1000.67,942.02,1000.8z"/>
			</g>
			<g>
				<path class="st0" d="M947.34,996.77l-0.06,0.19h-0.08l0.2-0.59h0.09l0.2,0.59h-0.08l-0.06-0.19H947.34z M947.54,996.71
					l-0.06-0.17c-0.01-0.04-0.02-0.07-0.03-0.11h0c-0.01,0.04-0.02,0.07-0.03,0.11l-0.06,0.17H947.54z"/>
				<path class="st0" d="M948.19,996.94c-0.03,0.01-0.08,0.03-0.16,0.03c-0.17,0-0.29-0.11-0.29-0.3c0-0.19,0.13-0.31,0.31-0.31
					c0.07,0,0.12,0.02,0.14,0.03l-0.02,0.06c-0.03-0.01-0.07-0.02-0.12-0.02c-0.14,0-0.23,0.09-0.23,0.24
					c0,0.15,0.08,0.24,0.23,0.24c0.05,0,0.09-0.01,0.13-0.02L948.19,996.94z"/>
				<path class="st0" d="M948.28,996.37c0.04-0.01,0.09-0.01,0.15-0.01c0.08,0,0.13,0.02,0.17,0.05c0.03,0.03,0.05,0.07,0.05,0.12
					c0,0.05-0.02,0.1-0.05,0.13c-0.04,0.04-0.11,0.07-0.18,0.07c-0.02,0-0.04,0-0.06-0.01v0.24h-0.08V996.37z M948.36,996.66
					c0.02,0,0.04,0.01,0.06,0.01c0.09,0,0.15-0.04,0.15-0.13c0-0.08-0.06-0.12-0.14-0.12c-0.03,0-0.06,0-0.07,0.01V996.66z"/>
			</g>
			<g>
				<path class="st0" d="M942.18,996.37h0.08v0.29h0c0.02-0.02,0.03-0.04,0.05-0.06l0.18-0.22h0.1l-0.22,0.25l0.23,0.34h-0.09
					l-0.2-0.29l-0.06,0.07v0.23h-0.08V996.37z"/>
				<path class="st0" d="M942.65,996.87c0.03,0.02,0.08,0.04,0.14,0.04c0.08,0,0.12-0.04,0.12-0.1c0-0.06-0.03-0.09-0.11-0.12
					c-0.1-0.03-0.16-0.08-0.16-0.17c0-0.09,0.08-0.16,0.19-0.16c0.06,0,0.1,0.01,0.13,0.03l-0.02,0.06
					c-0.02-0.01-0.06-0.03-0.11-0.03c-0.08,0-0.11,0.05-0.11,0.09c0,0.06,0.04,0.08,0.12,0.11c0.1,0.04,0.15,0.09,0.15,0.17
					c0,0.09-0.07,0.17-0.21,0.17c-0.06,0-0.12-0.02-0.15-0.04L942.65,996.87z"/>
			</g>
			<g>
				<path class="st0" d="M946.05,994.35h0.08v0.29h0c0.02-0.02,0.03-0.04,0.05-0.06l0.18-0.22h0.1l-0.22,0.25l0.23,0.34h-0.09
					l-0.2-0.29l-0.06,0.07v0.23h-0.08V994.35z"/>
				<path class="st0" d="M946.52,994.35c0.04-0.01,0.09-0.01,0.15-0.01c0.08,0,0.13,0.01,0.17,0.05c0.03,0.03,0.05,0.07,0.05,0.11
					c0,0.08-0.05,0.13-0.11,0.15v0c0.05,0.02,0.07,0.06,0.09,0.12c0.02,0.08,0.03,0.14,0.05,0.16h-0.08
					c-0.01-0.02-0.02-0.07-0.04-0.14c-0.02-0.08-0.05-0.11-0.12-0.12h-0.07v0.26h-0.08V994.35z M946.6,994.62h0.08
					c0.08,0,0.13-0.04,0.13-0.11c0-0.08-0.06-0.11-0.14-0.11c-0.04,0-0.06,0-0.08,0.01V994.62z"/>
			</g>
			<g>
				<path class="st0" d="M944.7,996.77l-0.06,0.19h-0.08l0.2-0.59h0.09l0.2,0.59h-0.08l-0.06-0.19H944.7z M944.89,996.71l-0.06-0.17
					c-0.01-0.04-0.02-0.07-0.03-0.11h0c-0.01,0.04-0.02,0.07-0.03,0.11l-0.06,0.17H944.89z"/>
				<path class="st0" d="M945.19,996.43h-0.18v-0.07h0.44v0.07h-0.18v0.53h-0.08V996.43z"/>
			</g>
			<g>
				<path class="st0" d="M955.39,996.77l-0.06,0.19h-0.08l0.2-0.59h0.09l0.2,0.59h-0.08l-0.06-0.19H955.39z M955.59,996.71
					l-0.06-0.17c-0.01-0.04-0.02-0.07-0.03-0.11h0c-0.01,0.04-0.02,0.07-0.03,0.11l-0.06,0.17H955.59z"/>
				<path class="st0" d="M956.24,996.94c-0.03,0.01-0.08,0.03-0.16,0.03c-0.17,0-0.29-0.11-0.29-0.3c0-0.19,0.13-0.31,0.31-0.31
					c0.07,0,0.12,0.02,0.14,0.03l-0.02,0.06c-0.03-0.01-0.07-0.02-0.12-0.02c-0.14,0-0.23,0.09-0.23,0.24
					c0,0.15,0.08,0.24,0.23,0.24c0.05,0,0.09-0.01,0.13-0.02L956.24,996.94z"/>
				<path class="st0" d="M956.34,996.37c0.04-0.01,0.09-0.01,0.15-0.01c0.08,0,0.13,0.02,0.17,0.05c0.03,0.03,0.05,0.07,0.05,0.12
					c0,0.05-0.02,0.1-0.05,0.13c-0.04,0.04-0.11,0.07-0.18,0.07c-0.02,0-0.04,0-0.06-0.01v0.24h-0.08V996.37z M956.41,996.66
					c0.02,0,0.04,0.01,0.06,0.01c0.09,0,0.15-0.04,0.15-0.13c0-0.08-0.06-0.12-0.14-0.12c-0.03,0-0.06,0-0.07,0.01V996.66z"/>
			</g>
			<g>
				<path class="st0" d="M950.11,996.37h0.08v0.29h0c0.02-0.02,0.03-0.04,0.05-0.06l0.18-0.22h0.1l-0.22,0.25l0.23,0.34h-0.09
					l-0.2-0.29l-0.06,0.07v0.23h-0.08V996.37z"/>
				<path class="st0" d="M950.58,996.87c0.03,0.02,0.08,0.04,0.14,0.04c0.08,0,0.12-0.04,0.12-0.1c0-0.06-0.03-0.09-0.11-0.12
					c-0.1-0.03-0.16-0.08-0.16-0.17c0-0.09,0.08-0.16,0.19-0.16c0.06,0,0.11,0.01,0.13,0.03l-0.02,0.06
					c-0.02-0.01-0.06-0.03-0.11-0.03c-0.08,0-0.11,0.05-0.11,0.09c0,0.06,0.04,0.08,0.12,0.11c0.1,0.04,0.15,0.09,0.15,0.17
					c0,0.09-0.07,0.17-0.21,0.17c-0.06,0-0.12-0.02-0.15-0.04L950.58,996.87z"/>
			</g>
			<g>
				<path class="st0" d="M954.03,994.33h0.08v0.29h0c0.02-0.02,0.03-0.04,0.05-0.06l0.18-0.22h0.1l-0.22,0.25l0.23,0.34h-0.09
					l-0.2-0.29l-0.06,0.07v0.23h-0.08V994.33z"/>
				<path class="st0" d="M954.51,994.34c0.04-0.01,0.09-0.01,0.15-0.01c0.08,0,0.13,0.01,0.17,0.05c0.03,0.03,0.05,0.07,0.05,0.11
					c0,0.08-0.05,0.13-0.11,0.15v0c0.05,0.02,0.07,0.06,0.09,0.12c0.02,0.08,0.03,0.14,0.05,0.16h-0.08
					c-0.01-0.02-0.02-0.07-0.04-0.14c-0.02-0.08-0.05-0.11-0.12-0.12h-0.07v0.26h-0.08V994.34z M954.59,994.61h0.08
					c0.08,0,0.13-0.04,0.13-0.11c0-0.08-0.06-0.11-0.14-0.11c-0.04,0-0.06,0-0.08,0.01V994.61z"/>
			</g>
			<g>
				<path class="st0" d="M952.63,996.77l-0.06,0.19h-0.08l0.2-0.59h0.09l0.2,0.59h-0.08l-0.06-0.19H952.63z M952.82,996.71
					l-0.06-0.17c-0.01-0.04-0.02-0.07-0.03-0.11h0c-0.01,0.04-0.02,0.07-0.03,0.11l-0.06,0.17H952.82z"/>
				<path class="st0" d="M953.12,996.43h-0.18v-0.07h0.44v0.07h-0.18v0.53h-0.08V996.43z"/>
			</g>
			<g>
				<path class="st0" d="M947.82,999.88c0.03,0.02,0.08,0.04,0.14,0.04c0.08,0,0.12-0.04,0.12-0.1c0-0.06-0.03-0.09-0.11-0.12
					c-0.1-0.03-0.16-0.08-0.16-0.17c0-0.09,0.08-0.16,0.19-0.16c0.06,0,0.1,0.01,0.13,0.03l-0.02,0.06
					c-0.02-0.01-0.06-0.03-0.11-0.03c-0.08,0-0.11,0.05-0.11,0.09c0,0.06,0.04,0.08,0.12,0.11c0.1,0.04,0.15,0.09,0.15,0.17
					c0,0.09-0.07,0.17-0.21,0.17c-0.06,0-0.12-0.02-0.15-0.04L947.82,999.88z"/>
			</g>
			<g>
				<path class="st0" d="M950.49,1000.79c0,0.2-0.12,0.31-0.28,0.31c-0.16,0-0.27-0.12-0.27-0.3c0-0.19,0.12-0.31,0.28-0.31
					C950.38,1000.49,950.49,1000.62,950.49,1000.79z M950.03,1000.8c0,0.13,0.07,0.24,0.19,0.24c0.12,0,0.19-0.11,0.19-0.25
					c0-0.12-0.06-0.24-0.19-0.24C950.09,1000.55,950.03,1000.67,950.03,1000.8z"/>
			</g>
			<g>
				<path class="st0" d="M958.82,1003c0,0.2-0.12,0.31-0.28,0.31c-0.16,0-0.27-0.12-0.27-0.3c0-0.19,0.12-0.31,0.28-0.31
					C958.71,1002.7,958.82,1002.82,958.82,1003z M958.36,1003.01c0,0.13,0.07,0.24,0.19,0.24c0.12,0,0.19-0.11,0.19-0.25
					c0-0.12-0.06-0.24-0.19-0.24C958.42,1002.76,958.36,1002.88,958.36,1003.01z"/>
				<path class="st0" d="M958.99,1002.71v0.25h0.29v-0.25h0.08v0.59h-0.08v-0.28h-0.29v0.28h-0.08v-0.59H958.99z"/>
			</g>
			<g>
				<path class="st0" d="M950.89,1003c0,0.2-0.12,0.31-0.28,0.31c-0.16,0-0.27-0.12-0.27-0.3c0-0.19,0.12-0.31,0.28-0.31
					C950.78,1002.7,950.89,1002.82,950.89,1003z M950.43,1003.01c0,0.13,0.07,0.24,0.19,0.24c0.12,0,0.19-0.11,0.19-0.25
					c0-0.12-0.06-0.24-0.19-0.24C950.49,1002.76,950.43,1002.88,950.43,1003.01z"/>
				<path class="st0" d="M951.06,1002.71v0.25h0.29v-0.25h0.08v0.59h-0.08v-0.28h-0.29v0.28h-0.08v-0.59H951.06z"/>
			</g>
			<g>
				<path class="st0" d="M955.64,999.88c0.03,0.02,0.08,0.04,0.14,0.04c0.08,0,0.12-0.04,0.12-0.1c0-0.06-0.03-0.09-0.11-0.12
					c-0.1-0.03-0.16-0.08-0.16-0.17c0-0.09,0.08-0.16,0.19-0.16c0.06,0,0.1,0.01,0.13,0.03l-0.02,0.06
					c-0.02-0.01-0.06-0.03-0.11-0.03c-0.08,0-0.11,0.05-0.11,0.09c0,0.06,0.04,0.08,0.12,0.11c0.1,0.04,0.15,0.09,0.15,0.17
					c0,0.09-0.07,0.17-0.21,0.17c-0.06,0-0.12-0.02-0.15-0.04L955.64,999.88z"/>
			</g>
			<g>
				<path class="st0" d="M958.3,1000.79c0,0.2-0.12,0.31-0.28,0.31c-0.16,0-0.27-0.12-0.27-0.3c0-0.19,0.12-0.31,0.28-0.31
					C958.2,1000.49,958.3,1000.62,958.3,1000.79z M957.84,1000.8c0,0.13,0.07,0.24,0.19,0.24c0.12,0,0.19-0.11,0.19-0.25
					c0-0.12-0.06-0.24-0.19-0.24C957.91,1000.55,957.84,1000.67,957.84,1000.8z"/>
			</g>
			<g>
				<path class="st0" d="M958.82,1005.21c0,0.2-0.12,0.31-0.28,0.31c-0.16,0-0.27-0.12-0.27-0.3c0-0.19,0.12-0.31,0.28-0.31
					C958.71,1004.91,958.82,1005.04,958.82,1005.21z M958.36,1005.22c0,0.13,0.07,0.24,0.19,0.24c0.12,0,0.19-0.11,0.19-0.25
					c0-0.12-0.06-0.24-0.19-0.24C958.42,1004.97,958.36,1005.09,958.36,1005.22z"/>
				<path class="st0" d="M958.99,1004.92v0.25h0.29v-0.25h0.08v0.59h-0.08v-0.28h-0.29v0.28h-0.08v-0.59H958.99z"/>
			</g>
		</g>
		<g>
			<path class="st1" d="M938.77,996.62h-0.04c0,0.33-0.14,0.64-0.35,0.86c-0.22,0.22-0.52,0.35-0.86,0.35
				c-0.33,0-0.64-0.14-0.86-0.35c-0.22-0.22-0.35-0.52-0.35-0.86c0-0.33,0.14-0.64,0.35-0.86c0.22-0.22,0.52-0.35,0.86-0.35
				c0.33,0,0.64,0.14,0.86,0.35c0.22,0.22,0.35,0.52,0.35,0.86H938.77h0.04c0-0.71-0.58-1.28-1.28-1.28c-0.71,0-1.28,0.58-1.28,1.28
				s0.58,1.28,1.28,1.28s1.28-0.58,1.28-1.28H938.77z"/>
			<path class="st1" d="M941.27,996.62h-0.04c0,0.33-0.14,0.64-0.35,0.86c-0.22,0.22-0.52,0.35-0.86,0.35
				c-0.33,0-0.64-0.14-0.86-0.35c-0.22-0.22-0.35-0.52-0.35-0.86c0-0.33,0.14-0.64,0.35-0.86c0.22-0.22,0.52-0.35,0.86-0.35
				c0.33,0,0.64,0.14,0.86,0.35c0.22,0.22,0.35,0.52,0.35,0.86H941.27h0.04c0-0.71-0.58-1.28-1.28-1.28c-0.71,0-1.28,0.58-1.28,1.28
				s0.58,1.28,1.28,1.28c0.71,0,1.28-0.58,1.28-1.28H941.27z"/>
			<path class="st1" d="M943.77,996.62h-0.04c0,0.33-0.14,0.64-0.35,0.86c-0.22,0.22-0.52,0.35-0.86,0.35
				c-0.33,0-0.64-0.14-0.86-0.35c-0.22-0.22-0.35-0.52-0.35-0.86c0-0.33,0.14-0.64,0.35-0.86c0.22-0.22,0.52-0.35,0.86-0.35
				c0.33,0,0.64,0.14,0.86,0.35c0.22,0.22,0.35,0.52,0.35,0.86H943.77h0.04c0-0.71-0.58-1.28-1.28-1.28c-0.71,0-1.28,0.58-1.28,1.28
				c0,0.71,0.58,1.28,1.28,1.28s1.28-0.58,1.28-1.28H943.77z"/>
			<path class="st1" d="M946.26,996.62h-0.04c0,0.33-0.14,0.64-0.35,0.86s-0.52,0.35-0.86,0.35c-0.33,0-0.64-0.14-0.86-0.35
				c-0.22-0.22-0.35-0.52-0.35-0.86c0-0.33,0.14-0.64,0.35-0.86c0.22-0.22,0.52-0.35,0.86-0.35c0.33,0,0.64,0.14,0.86,0.35
				c0.22,0.22,0.35,0.52,0.35,0.86H946.26h0.04c0-0.71-0.58-1.28-1.28-1.28c-0.71,0-1.28,0.58-1.28,1.28s0.58,1.28,1.28,1.28
				c0.71,0,1.28-0.58,1.28-1.28H946.26z"/>
			<path class="st1" d="M949.2,996.62h-0.04c0,0.33-0.14,0.64-0.35,0.86c-0.22,0.22-0.52,0.35-0.86,0.35
				c-0.33,0-0.64-0.14-0.86-0.35c-0.22-0.22-0.35-0.52-0.35-0.86c0-0.33,0.14-0.64,0.35-0.86c0.22-0.22,0.52-0.35,0.86-0.35
				c0.33,0,0.64,0.14,0.86,0.35c0.22,0.22,0.35,0.52,0.35,0.86H949.2h0.04c0-0.71-0.58-1.28-1.28-1.28c-0.71,0-1.28,0.58-1.28,1.28
				s0.58,1.28,1.28,1.28c0.71,0,1.28-0.58,1.28-1.28H949.2z"/>
			<path class="st1" d="M957.16,996.62h-0.04c0,0.33-0.14,0.64-0.35,0.86c-0.22,0.22-0.52,0.35-0.86,0.35
				c-0.33,0-0.64-0.14-0.86-0.35c-0.22-0.22-0.35-0.52-0.35-0.86c0-0.33,0.14-0.64,0.35-0.86c0.22-0.22,0.52-0.35,0.86-0.35
				c0.33,0,0.64,0.14,0.86,0.35c0.22,0.22,0.35,0.52,0.35,0.86H957.16h0.04c0-0.71-0.58-1.28-1.28-1.28c-0.71,0-1.28,0.58-1.28,1.28
				c0,0.71,0.58,1.28,1.28,1.28c0.71,0,1.28-0.58,1.28-1.28H957.16z"/>
			<path class="st1" d="M951.7,996.62h-0.04c0,0.33-0.14,0.64-0.35,0.86c-0.22,0.22-0.52,0.35-0.86,0.35
				c-0.33,0-0.64-0.14-0.86-0.35c-0.22-0.22-0.35-0.52-0.35-0.86c0-0.33,0.14-0.64,0.35-0.86c0.22-0.22,0.52-0.35,0.86-0.35
				c0.33,0,0.64,0.14,0.86,0.35c0.22,0.22,0.35,0.52,0.35,0.86H951.7h0.04c0-0.71-0.58-1.28-1.28-1.28c-0.71,0-1.28,0.58-1.28,1.28
				s0.58,1.28,1.28,1.28c0.71,0,1.28-0.58,1.28-1.28H951.7z"/>
			<path class="st1" d="M954.19,996.62h-0.04c0,0.33-0.14,0.64-0.35,0.86c-0.22,0.22-0.52,0.35-0.86,0.35
				c-0.33,0-0.64-0.14-0.86-0.35c-0.22-0.22-0.35-0.52-0.35-0.86c0-0.33,0.14-0.64,0.35-0.86c0.22-0.22,0.52-0.35,0.86-0.35
				c0.33,0,0.64,0.14,0.86,0.35c0.22,0.22,0.35,0.52,0.35,0.86H954.19h0.04c0-0.71-0.58-1.28-1.28-1.28c-0.71,0-1.28,0.58-1.28,1.28
				s0.58,1.28,1.28,1.28s1.28-0.58,1.28-1.28H954.19z"/>
			<path class="st1" d="M947.73,994.64h-0.04c0,0.33-0.14,0.64-0.35,0.86s-0.52,0.35-0.86,0.35s-0.64-0.14-0.86-0.35
				c-0.22-0.22-0.35-0.52-0.35-0.86c0-0.33,0.14-0.64,0.35-0.86c0.22-0.22,0.52-0.35,0.86-0.35s0.64,0.14,0.86,0.35
				c0.22,0.22,0.35,0.52,0.35,0.86H947.73h0.04c0-0.71-0.58-1.28-1.28-1.28c-0.71,0-1.28,0.58-1.28,1.28c0,0.71,0.58,1.28,1.28,1.28
				c0.71,0,1.28-0.58,1.28-1.28H947.73z"/>
			<path class="st1" d="M955.66,994.64h-0.04c0,0.33-0.14,0.64-0.35,0.86c-0.22,0.22-0.52,0.35-0.86,0.35
				c-0.33,0-0.64-0.14-0.86-0.35c-0.22-0.22-0.35-0.52-0.35-0.86c0-0.33,0.14-0.64,0.35-0.86c0.22-0.22,0.52-0.35,0.86-0.35
				c0.33,0,0.64,0.14,0.86,0.35c0.22,0.22,0.35,0.52,0.35,0.86H955.66h0.04c0-0.71-0.58-1.28-1.28-1.28c-0.71,0-1.28,0.58-1.28,1.28
				c0,0.71,0.58,1.28,1.28,1.28s1.28-0.58,1.28-1.28H955.66z"/>
			<path class="st1" d="M940.13,998.02l-0.01,0.02c-0.01,0.01-0.04,0.03-0.07,0.05c-0.03,0.02-0.06,0.05-0.06,0.1
				c0,0.03,0.02,0.06,0.03,0.08c0.03,0.03,0.06,0.04,0.08,0.05l0.03,0.04l-0.01,0.02c-0.01,0.01-0.04,0.03-0.07,0.05
				c-0.03,0.02-0.06,0.05-0.06,0.1c0,0.03,0.02,0.06,0.03,0.08c0.03,0.03,0.06,0.04,0.08,0.05l0.03,0.04l-0.01,0.02
				c-0.01,0.01-0.04,0.03-0.07,0.05c-0.03,0.02-0.06,0.05-0.06,0.1c0,0.03,0.02,0.06,0.03,0.08c0.03,0.03,0.06,0.04,0.08,0.05
				l0.03,0.04l-0.01,0.02c-0.01,0.01-0.04,0.03-0.07,0.05c-0.03,0.02-0.06,0.05-0.06,0.1h0.07l0.01-0.02
				c0.01-0.01,0.04-0.03,0.07-0.05c0.03-0.02,0.06-0.05,0.06-0.1c0-0.03-0.02-0.06-0.03-0.08c-0.03-0.03-0.06-0.04-0.08-0.05
				l-0.03-0.04l0.01-0.02c0.01-0.01,0.04-0.03,0.07-0.05c0.03-0.02,0.06-0.05,0.06-0.1c0-0.03-0.02-0.06-0.03-0.08
				c-0.03-0.03-0.06-0.04-0.08-0.05l-0.03-0.04l0.01-0.02c0.01-0.01,0.04-0.03,0.07-0.05c0.03-0.02,0.06-0.05,0.06-0.1
				c0-0.03-0.02-0.06-0.03-0.08c-0.03-0.03-0.06-0.04-0.08-0.05l-0.03-0.04l0.01-0.02c0.01-0.01,0.04-0.03,0.07-0.05
				c0.03-0.02,0.06-0.05,0.06-0.1H940.13L940.13,998.02z"/>
			<polygon class="st1" points="940.28,1000.02 940.71,1000.81 940.07,1001.95 938.7,1001.95 938.7,1002.02 940.12,1002.02 
				940.8,1000.81 940.35,999.98 940.28,1000.02 			"/>
			<polyline class="st1" points="940.7,1000.73 941.65,1000.73 941.65,1000.66 940.7,1000.66 			"/>
			<polyline class="st1" points="940.7,1000.95 941.65,1000.95 941.65,1000.88 940.7,1000.88 			"/>
			<path class="st1" d="M948.14,998.02l-0.01,0.02c-0.01,0.01-0.04,0.03-0.07,0.05c-0.03,0.02-0.06,0.05-0.06,0.1
				c0,0.03,0.02,0.06,0.03,0.08c0.03,0.03,0.06,0.04,0.08,0.05l0.03,0.04l-0.01,0.02c-0.01,0.01-0.04,0.03-0.07,0.05
				c-0.03,0.02-0.06,0.05-0.06,0.1c0,0.03,0.02,0.06,0.03,0.08c0.03,0.03,0.06,0.04,0.08,0.05l0.03,0.04l-0.01,0.02
				c-0.01,0.01-0.04,0.03-0.07,0.05c-0.03,0.02-0.06,0.05-0.06,0.1c0,0.03,0.02,0.06,0.03,0.08c0.03,0.03,0.06,0.04,0.08,0.05
				l0.03,0.04l-0.01,0.02c-0.01,0.01-0.04,0.03-0.07,0.05c-0.03,0.02-0.06,0.05-0.06,0.1h0.07l0.01-0.02
				c0.01-0.01,0.04-0.03,0.07-0.05c0.03-0.02,0.06-0.05,0.06-0.1c0-0.03-0.02-0.06-0.03-0.08c-0.03-0.03-0.06-0.04-0.08-0.05
				l-0.03-0.04l0.01-0.02c0.01-0.01,0.04-0.03,0.07-0.05c0.03-0.02,0.06-0.05,0.06-0.1c0-0.03-0.02-0.06-0.03-0.08
				c-0.03-0.03-0.06-0.04-0.08-0.05l-0.03-0.04l0.01-0.02c0.01-0.01,0.04-0.03,0.07-0.05c0.03-0.02,0.06-0.05,0.06-0.1
				c0-0.03-0.02-0.06-0.03-0.08c-0.03-0.03-0.06-0.04-0.08-0.05l-0.03-0.04l0.01-0.02c0.01-0.01,0.04-0.03,0.07-0.05
				c0.03-0.02,0.06-0.05,0.06-0.1H948.14L948.14,998.02z"/>
			<polygon class="st1" points="948.29,1000.02 948.72,1000.81 948.06,1001.98 948.72,1003.02 948.08,1004.16 946.6,1004.16 
				946.6,1004.23 948.12,1004.23 948.8,1003.02 948.14,1001.98 948.8,1000.81 948.35,999.98 948.29,1000.02 			"/>
			<polyline class="st1" points="948.7,1000.73 949.65,1000.73 949.65,1000.66 948.7,1000.66 			"/>
			<polyline class="st1" points="948.7,1000.95 949.65,1000.95 949.65,1000.88 948.7,1000.88 			"/>
			<polygon class="st1" points="948.1,1001.98 948.03,1002 948.03,1001.97 			"/>
			<polygon class="st1" points="947.95,1002.01 947.88,1002.02 947.88,1001.94 947.95,1001.96 			"/>
			<polygon class="st1" points="947.81,1002.03 947.73,1002.05 947.73,1001.92 947.81,1001.93 			"/>
			<polygon class="st1" points="947.66,1002.06 947.58,1002.07 947.58,1001.89 947.66,1001.9 			"/>
			<polygon class="st1" points="947.51,1002.09 947.44,1002.1 947.44,1001.87 947.51,1001.88 			"/>
			<polygon class="st1" points="947.36,1002.11 947.29,1002.13 947.29,1001.84 947.36,1001.85 			"/>
			<polygon class="st1" points="947.22,1002.14 947.14,1002.15 947.14,1001.81 947.22,1001.83 			"/>
			<polygon class="st1" points="947.07,1002.16 947,1002.18 947,1001.79 947.07,1001.8 			"/>
			<polygon class="st1" points="946.92,1002.19 946.85,1002.2 946.85,1001.76 946.92,1001.77 			"/>
			<polygon class="st1" points="946.78,1002.22 946.7,1002.23 946.7,1001.74 946.78,1001.75 			"/>
			<polygon class="st1" points="948.76,1003.01 948.83,1002.99 948.83,1003.02 			"/>
			<polygon class="st1" points="948.91,1002.98 948.98,1002.97 948.98,1003.05 948.91,1003.03 			"/>
			<polygon class="st1" points="949.05,1002.96 949.13,1002.94 949.13,1003.07 949.05,1003.06 			"/>
			<polygon class="st1" points="949.2,1002.93 949.27,1002.92 949.27,1003.1 949.2,1003.09 			"/>
			<polygon class="st1" points="949.35,1002.9 949.42,1002.89 949.42,1003.12 949.35,1003.11 			"/>
			<polygon class="st1" points="949.49,1002.88 949.57,1002.86 949.57,1003.15 949.49,1003.14 			"/>
			<polygon class="st1" points="949.64,1002.85 949.71,1002.84 949.71,1003.18 949.64,1003.16 			"/>
			<polygon class="st1" points="949.79,1002.83 949.86,1002.81 949.86,1003.2 949.79,1003.19 			"/>
			<polygon class="st1" points="949.93,1002.8 950.01,1002.79 950.01,1003.23 949.93,1003.22 			"/>
			<polygon class="st1" points="950.08,1002.77 950.15,1002.76 950.15,1003.25 950.08,1003.24 			"/>
			<path class="st1" d="M955.95,998.02l-0.01,0.02c-0.01,0.01-0.04,0.03-0.07,0.05c-0.03,0.02-0.06,0.05-0.06,0.1
				c0,0.03,0.02,0.06,0.03,0.08c0.03,0.03,0.06,0.04,0.08,0.05l0.03,0.04l-0.01,0.02c-0.01,0.01-0.04,0.03-0.07,0.05
				c-0.03,0.02-0.06,0.05-0.06,0.1c0,0.03,0.02,0.06,0.03,0.08c0.03,0.03,0.06,0.04,0.08,0.05l0.03,0.04l-0.01,0.02
				c-0.01,0.01-0.04,0.03-0.07,0.05c-0.03,0.02-0.06,0.05-0.06,0.1c0,0.03,0.02,0.06,0.03,0.08c0.03,0.03,0.06,0.04,0.08,0.05
				l0.03,0.04l-0.01,0.02c-0.01,0.01-0.04,0.03-0.07,0.05c-0.03,0.02-0.06,0.05-0.06,0.1h0.07l0.01-0.02
				c0.01-0.01,0.04-0.03,0.07-0.05c0.03-0.02,0.06-0.05,0.06-0.1c0-0.03-0.02-0.06-0.03-0.08c-0.03-0.03-0.06-0.04-0.08-0.05
				l-0.03-0.04l0.01-0.02c0.01-0.01,0.04-0.03,0.07-0.05c0.03-0.02,0.06-0.05,0.06-0.1c0-0.03-0.02-0.06-0.03-0.08
				c-0.03-0.03-0.06-0.04-0.08-0.05l-0.03-0.04l0.01-0.02c0.01-0.01,0.04-0.03,0.07-0.05c0.03-0.02,0.06-0.05,0.06-0.1
				c0-0.03-0.02-0.06-0.03-0.08c-0.03-0.03-0.06-0.04-0.08-0.05l-0.03-0.04l0.01-0.02c0.01-0.01,0.04-0.03,0.07-0.05
				c0.03-0.02,0.06-0.05,0.06-0.1H955.95L955.95,998.02z"/>
			<polyline class="st1" points="956.51,1000.73 957.47,1000.73 957.47,1000.66 956.51,1000.66 			"/>
			<polyline class="st1" points="956.51,1000.95 957.47,1000.95 957.47,1000.88 956.51,1000.88 			"/>
			<polygon class="st1" points="955.91,1001.98 954.46,1002.24 954.46,1001.73 			"/>
			<polygon class="st1" points="956.58,1003.01 958.03,1002.75 958.03,1003.26 			"/>
			<polygon class="st1" points="955.91,1004.19 955.84,1004.21 955.84,1004.18 			"/>
			<polygon class="st1" points="955.77,1004.22 955.69,1004.23 955.69,1004.15 955.77,1004.17 			"/>
			<polygon class="st1" points="955.62,1004.25 955.55,1004.26 955.55,1004.13 955.62,1004.14 			"/>
			<polygon class="st1" points="955.47,1004.27 955.4,1004.28 955.4,1004.1 955.47,1004.12 			"/>
			<polygon class="st1" points="955.33,1004.3 955.25,1004.31 955.25,1004.08 955.33,1004.09 			"/>
			<polygon class="st1" points="955.18,1004.32 955.11,1004.34 955.11,1004.05 955.18,1004.06 			"/>
			<polygon class="st1" points="955.03,1004.35 954.96,1004.36 954.96,1004.02 955.03,1004.04 			"/>
			<polygon class="st1" points="954.89,1004.38 954.81,1004.39 954.81,1004 954.89,1004.01 			"/>
			<polygon class="st1" points="954.74,1004.4 954.67,1004.41 954.67,1003.97 954.74,1003.99 			"/>
			<polygon class="st1" points="954.59,1004.43 954.52,1004.44 954.52,1003.95 954.59,1003.96 			"/>
			<polygon class="st1" points="956.58,1005.22 956.65,1005.21 956.65,1005.23 			"/>
			<polygon class="st1" points="956.72,1005.19 956.8,1005.18 956.8,1005.26 956.72,1005.24 			"/>
			<polygon class="st1" points="956.87,1005.17 956.94,1005.15 956.94,1005.28 956.87,1005.27 			"/>
			<polygon class="st1" points="957.02,1005.14 957.09,1005.13 957.09,1005.31 957.02,1005.3 			"/>
			<polygon class="st1" points="957.16,1005.11 957.24,1005.1 957.24,1005.34 957.16,1005.32 			"/>
			<polygon class="st1" points="957.31,1005.09 957.38,1005.08 957.38,1005.36 957.31,1005.35 			"/>
			<polygon class="st1" points="957.46,1005.06 957.53,1005.05 957.53,1005.39 957.46,1005.37 			"/>
			<polygon class="st1" points="957.6,1005.04 957.68,1005.02 957.68,1005.41 957.6,1005.4 			"/>
			<polygon class="st1" points="957.75,1005.01 957.82,1005 957.82,1005.44 957.75,1005.43 			"/>
			<polygon class="st1" points="957.9,1004.98 957.97,1004.97 957.97,1005.47 957.9,1005.45 			"/>
			<polygon class="st1" points="956.1,1000.02 956.53,1000.81 955.87,1001.98 956.53,1003.02 955.87,1004.19 956.53,1005.23 
				955.89,1006.37 954.46,1006.37 954.46,1006.44 955.94,1006.44 956.62,1005.23 955.96,1004.19 956.62,1003.02 955.96,1001.98 
				956.62,1000.81 956.17,999.98 956.1,1000.02 			"/>
		</g>
		<g>
			<path class="st1" d="M963,1000h-0.14c0,4.07-1.65,7.75-4.31,10.41c-2.67,2.67-6.35,4.31-10.41,4.31c-4.07,0-7.75-1.65-10.41-4.31
				c-2.67-2.67-4.31-6.35-4.31-10.41c0-4.07,1.65-7.75,4.31-10.41c2.67-2.67,6.35-4.31,10.41-4.31c4.07,0,7.75,1.65,10.41,4.31
				c2.67,2.67,4.31,6.35,4.31,10.41H963h0.14c0-8.28-6.72-15-15-15c-8.28,0-15,6.72-15,15c0,8.28,6.72,15,15,15
				c8.28,0,15-6.72,15-15H963z"/>
		</g>
	</g>
	<g>
		<path class="st0" d="M976.89,1005.19c0.6-0.37,1-0.89,1.2-1.54l0.81,0.23c-0.23,0.81-0.72,1.46-1.47,1.95
			c-0.75,0.48-1.61,0.73-2.57,0.73c-1.26,0-2.33-0.43-3.21-1.28s-1.32-1.96-1.32-3.32c0-1.34,0.44-2.44,1.33-3.3
			c0.89-0.86,1.95-1.29,3.2-1.29c0.95,0,1.79,0.25,2.54,0.75c0.75,0.5,1.25,1.17,1.52,2.01l-0.83,0.27c-0.2-0.69-0.6-1.24-1.2-1.63
			c-0.6-0.39-1.28-0.58-2.03-0.58c-1.02,0-1.88,0.35-2.6,1.06c-0.71,0.71-1.07,1.61-1.07,2.71c0,1.14,0.35,2.05,1.06,2.75
			c0.71,0.69,1.57,1.04,2.6,1.04C975.61,1005.75,976.29,1005.56,976.89,1005.19z"/>
		<path class="st0" d="M981.52,1006.36v-12.93h0.88v12.93H981.52z"/>
		<path class="st0" d="M993.68,1006.36h-0.88v-1.87c-0.35,0.66-0.83,1.17-1.45,1.54c-0.62,0.37-1.33,0.55-2.15,0.55
			c-1.07,0-1.92-0.35-2.57-1.04c-0.65-0.69-0.97-1.61-0.97-2.75v-5.21h0.86v5.08c0,0.92,0.25,1.67,0.76,2.24
			c0.51,0.57,1.18,0.85,2.02,0.85c1.05,0,1.9-0.34,2.53-1.01c0.63-0.68,0.95-1.6,0.95-2.76v-4.4h0.88V1006.36z"/>
		<path class="st0" d="M997.08,1003.74c0.06,0.65,0.37,1.16,0.92,1.53s1.24,0.56,2.07,0.56c0.74,0,1.34-0.16,1.8-0.48
			c0.46-0.32,0.68-0.76,0.68-1.32c0-0.43-0.14-0.76-0.43-1c-0.29-0.23-0.7-0.41-1.24-0.53l-2.16-0.47
			c-1.45-0.31-2.17-1.02-2.17-2.14c0-0.75,0.3-1.37,0.89-1.83c0.59-0.47,1.37-0.7,2.33-0.7c0.93,0,1.7,0.22,2.3,0.66
			c0.6,0.44,0.98,1.01,1.15,1.72l-0.81,0.22c-0.12-0.56-0.41-1.01-0.88-1.35c-0.47-0.34-1.06-0.5-1.78-0.5
			c-0.71,0-1.27,0.16-1.69,0.48c-0.42,0.32-0.63,0.74-0.63,1.27c0,0.43,0.14,0.75,0.41,0.97c0.28,0.22,0.68,0.38,1.2,0.5l2.12,0.47
			c1.5,0.35,2.25,1.08,2.25,2.19c0,0.8-0.31,1.43-0.93,1.9c-0.62,0.46-1.44,0.69-2.46,0.69c-1.04,0-1.9-0.23-2.59-0.69
			c-0.68-0.46-1.08-1.1-1.2-1.91L997.08,1003.74z"/>
		<path class="st0" d="M1010.82,1005.86c-0.61,0.47-1.25,0.7-1.92,0.7c-0.79,0-1.42-0.24-1.9-0.71c-0.48-0.47-0.72-1.13-0.72-1.97
			v-5.55h-1.92v-0.75h1.92v-2.89h0.88v2.89h3.29v0.75h-3.29v5.5c0,0.59,0.16,1.05,0.49,1.39c0.33,0.34,0.76,0.51,1.3,0.51
			c0.55,0,1.06-0.2,1.53-0.59L1010.82,1005.86z"/>
		<path class="st0" d="M1020.43,1002.05h-7.96c0.01,1.13,0.38,2.03,1.1,2.71c0.72,0.68,1.54,1.02,2.48,1.02
			c1.68,0,2.81-0.75,3.41-2.25l0.77,0.18c-0.34,0.92-0.86,1.63-1.58,2.11c-0.72,0.48-1.59,0.73-2.6,0.73
			c-1.19,0-2.22-0.42-3.11-1.26c-0.89-0.84-1.33-1.94-1.33-3.3c0-1.38,0.45-2.49,1.35-3.35c0.9-0.86,1.96-1.28,3.2-1.28
			c1.21,0,2.21,0.4,3.01,1.21c0.8,0.81,1.22,1.86,1.27,3.15V1002.05z M1013.76,999.03c-0.71,0.59-1.13,1.37-1.25,2.34h7.04
			c-0.11-1.01-0.47-1.79-1.1-2.36c-0.62-0.57-1.39-0.85-2.3-0.85C1015.27,998.15,1014.47,998.44,1013.76,999.03z"/>
		<path class="st0" d="M1028.26,997.56l-0.09,0.83c-0.12-0.02-0.29-0.04-0.52-0.04c-1.16,0-2.07,0.42-2.74,1.25
			c-0.66,0.83-1,1.87-1,3.1v3.66h-0.88v-8.78h0.88v2.46c0.37-0.77,0.88-1.38,1.52-1.84c0.64-0.46,1.38-0.69,2.22-0.69
			C1027.89,997.5,1028.09,997.52,1028.26,997.56z"/>
		<path class="st0" d="M1052.42,1006.36l-4.11-9.68l-4.11,9.68h-2.08l5.3-12.03h1.8l5.3,12.03H1052.42z"/>
		<path class="st0" d="M1065.06,996c-1.2-1.12-2.82-1.68-4.84-1.68h-4.2v1.74h4.2c1.44,0,2.58,0.4,3.43,1.18
			c0.85,0.79,1.27,1.82,1.27,3.09c0,1.27-0.42,2.3-1.27,3.09c-0.85,0.79-1.99,1.18-3.43,1.18h-4.2v1.74h4.2
			c2.02,0,3.64-0.56,4.84-1.68c1.2-1.12,1.8-2.56,1.8-4.34C1066.86,998.57,1066.26,997.12,1065.06,996z"/>
		<path class="st0" d="M1036.04,996.07h4.2v-1.74h-4.2c-2.03,0-3.64,0.56-4.84,1.68c-1.2,1.12-1.8,2.56-1.8,4.34
			c0,1.77,0.6,3.22,1.8,4.34c1.2,1.12,2.82,1.68,4.84,1.68h4.2v-1.74h-4.2c-1.44,0-2.58-0.4-3.43-1.18
			c-0.85-0.79-1.27-1.82-1.27-3.09c0-1.27,0.43-2.3,1.27-3.09C1033.46,996.46,1034.6,996.07,1036.04,996.07z"/>
		<path class="st0" d="M1048.31,1003.81c-2.52,0-4.89-0.95-6.7-2.68l1.04-1.04c1.54,1.45,3.54,2.24,5.66,2.24
			c2.12,0,4.12-0.8,5.66-2.24l1.04,1.04C1053.19,1002.86,1050.82,1003.81,1048.31,1003.81z"/>
	</g>
</g>
</svg>
