<?xml version="1.0" encoding="UTF-8"?><svg id="a" xmlns="http://www.w3.org/2000/svg" viewBox="0 0 184.46 30"><defs><style>.b{fill:#4d4d4d;}.c{fill:#29abe2;}</style></defs><g><g><g><path class="c" d="M4,11.77l-.06,.19h-.08l.2-.59h.09l.2,.59h-.08l-.06-.19h-.21Zm.19-.06l-.06-.17s-.02-.07-.03-.11h0s-.02,.07-.03,.11l-.06,.17h.18Z"/><path class="c" d="M4.48,11.43h-.18v-.07h.44v.07h-.18v.53h-.08v-.53Z"/></g><g><path class="c" d="M6.2,11.77l-.06,.19h-.08l.2-.59h.09l.2,.59h-.08l-.06-.19h-.21Zm.19-.06l-.06-.17s-.02-.07-.03-.11h0s-.02,.07-.03,.11l-.06,.17h.18Z"/><path class="c" d="M7.04,11.94s-.08,.03-.16,.03c-.17,0-.29-.11-.29-.3s.13-.31,.31-.31c.07,0,.12,.02,.14,.03l-.02,.06s-.07-.02-.12-.02c-.14,0-.23,.09-.23,.24,0,.15,.08,.24,.23,.24,.05,0,.09,0,.13-.02l.02,.06Z"/><path class="c" d="M7.14,11.37s.09-.01,.15-.01c.08,0,.13,.02,.17,.05,.03,.03,.05,.07,.05,.12s-.02,.1-.05,.13c-.04,.04-.11,.07-.18,.07-.02,0-.04,0-.06,0v.24h-.08v-.59Zm.08,.29s.04,0,.06,0c.09,0,.15-.04,.15-.13s-.06-.12-.14-.12c-.03,0-.06,0-.07,0v.23Z"/></g><path class="c" d="M6.68,14.88s.08,.04,.14,.04c.08,0,.12-.04,.12-.1,0-.06-.03-.09-.11-.12-.1-.03-.16-.08-.16-.17,0-.09,.08-.16,.19-.16,.06,0,.1,.01,.13,.03l-.02,.06s-.06-.03-.11-.03c-.08,0-.11,.05-.11,.09,0,.06,.04,.08,.12,.11,.1,.04,.15,.09,.15,.17,0,.09-.07,.17-.21,.17-.06,0-.12-.02-.15-.04l.02-.06Z"/><path class="c" d="M9.35,15.79c0,.2-.12,.31-.28,.31s-.27-.12-.27-.3c0-.19,.12-.31,.28-.31s.27,.12,.27,.3Zm-.46,0c0,.13,.07,.24,.19,.24s.19-.11,.19-.25c0-.12-.06-.24-.19-.24s-.19,.12-.19,.25Z"/><g><path class="c" d="M14.2,11.77l-.06,.19h-.08l.2-.59h.09l.2,.59h-.08l-.06-.19h-.21Zm.19-.06l-.06-.17s-.02-.07-.03-.11h0s-.02,.07-.03,.11l-.06,.17h.18Z"/><path class="c" d="M15.05,11.94s-.08,.03-.16,.03c-.17,0-.29-.11-.29-.3s.13-.31,.31-.31c.07,0,.12,.02,.14,.03l-.02,.06s-.07-.02-.12-.02c-.14,0-.23,.09-.23,.24,0,.15,.08,.24,.23,.24,.05,0,.09,0,.13-.02l.02,.06Z"/><path class="c" d="M15.14,11.37s.09-.01,.15-.01c.08,0,.13,.02,.17,.05,.03,.03,.05,.07,.05,.12s-.02,.1-.05,.13c-.04,.04-.11,.07-.18,.07-.02,0-.04,0-.06,0v.24h-.08v-.59Zm.08,.29s.04,0,.06,0c.09,0,.15-.04,.15-.13s-.06-.12-.14-.12c-.03,0-.06,0-.07,0v.23Z"/></g><g><path class="c" d="M9.04,11.37h.08v.29h0s.03-.04,.05-.06l.18-.22h.1l-.22,.25,.23,.34h-.09l-.2-.29-.06,.07v.23h-.08v-.59Z"/><path class="c" d="M9.51,11.87s.08,.04,.14,.04c.08,0,.12-.04,.12-.1,0-.06-.03-.09-.11-.12-.1-.03-.16-.08-.16-.17,0-.09,.08-.16,.19-.16,.06,0,.1,.01,.13,.03l-.02,.06s-.06-.03-.11-.03c-.08,0-.11,.05-.11,.09,0,.06,.04,.08,.12,.11,.1,.04,.15,.09,.15,.17,0,.09-.07,.17-.21,.17-.06,0-.12-.02-.15-.04l.02-.06Z"/></g><g><path class="c" d="M12.91,9.35h.08v.29h0s.03-.04,.05-.06l.18-.22h.1l-.22,.25,.23,.34h-.09l-.2-.29-.06,.07v.23h-.08v-.59Z"/><path class="c" d="M13.38,9.35s.09-.01,.15-.01c.08,0,.13,.01,.17,.05,.03,.03,.05,.07,.05,.11,0,.08-.05,.13-.11,.15h0s.07,.06,.09,.12c.02,.08,.03,.14,.05,.16h-.08s-.02-.07-.04-.14c-.02-.08-.05-.11-.12-.12h-.07v.26h-.08v-.59Zm.08,.27h.08c.08,0,.13-.04,.13-.11,0-.08-.06-.11-.14-.11-.04,0-.06,0-.08,0v.22Z"/></g><g><path class="c" d="M11.56,11.77l-.06,.19h-.08l.2-.59h.09l.2,.59h-.08l-.06-.19h-.21Zm.19-.06l-.06-.17s-.02-.07-.03-.11h0s-.02,.07-.03,.11l-.06,.17h.18Z"/><path class="c" d="M12.05,11.43h-.18v-.07h.44v.07h-.18v.53h-.08v-.53Z"/></g><g><path class="c" d="M22.26,11.77l-.06,.19h-.08l.2-.59h.09l.2,.59h-.08l-.06-.19h-.21Zm.19-.06l-.06-.17s-.02-.07-.03-.11h0s-.02,.07-.03,.11l-.06,.17h.18Z"/><path class="c" d="M23.1,11.94s-.08,.03-.16,.03c-.17,0-.29-.11-.29-.3s.13-.31,.31-.31c.07,0,.12,.02,.14,.03l-.02,.06s-.07-.02-.12-.02c-.14,0-.23,.09-.23,.24,0,.15,.08,.24,.23,.24,.05,0,.09,0,.13-.02l.02,.06Z"/><path class="c" d="M23.2,11.37s.09-.01,.15-.01c.08,0,.13,.02,.17,.05,.03,.03,.05,.07,.05,.12s-.02,.1-.05,.13c-.04,.04-.11,.07-.18,.07-.02,0-.04,0-.06,0v.24h-.08v-.59Zm.08,.29s.04,0,.06,0c.09,0,.15-.04,.15-.13s-.06-.12-.14-.12c-.03,0-.06,0-.07,0v.23Z"/></g><g><path class="c" d="M16.97,11.37h.08v.29h0s.03-.04,.05-.06l.18-.22h.1l-.22,.25,.23,.34h-.09l-.2-.29-.06,.07v.23h-.08v-.59Z"/><path class="c" d="M17.44,11.87s.08,.04,.14,.04c.08,0,.12-.04,.12-.1,0-.06-.03-.09-.11-.12-.1-.03-.16-.08-.16-.17,0-.09,.08-.16,.19-.16,.06,0,.1,.01,.13,.03l-.02,.06s-.06-.03-.11-.03c-.08,0-.11,.05-.11,.09,0,.06,.04,.08,.12,.11,.1,.04,.15,.09,.15,.17,0,.09-.07,.17-.21,.17-.06,0-.12-.02-.15-.04l.02-.06Z"/></g><g><path class="c" d="M20.89,9.33h.08v.29h0s.03-.04,.05-.06l.18-.22h.1l-.22,.25,.23,.34h-.09l-.2-.29-.06,.07v.23h-.08v-.59Z"/><path class="c" d="M21.37,9.34s.09-.01,.15-.01c.08,0,.13,.01,.17,.05,.03,.03,.05,.07,.05,.11,0,.08-.05,.13-.11,.15h0s.07,.06,.09,.12c.02,.08,.03,.14,.05,.16h-.08s-.02-.07-.04-.14c-.02-.08-.05-.11-.12-.12h-.07v.26h-.08v-.59Zm.08,.27h.08c.08,0,.13-.04,.13-.11,0-.08-.06-.11-.14-.11-.04,0-.06,0-.08,0v.22Z"/></g><g><path class="c" d="M19.49,11.77l-.06,.19h-.08l.2-.59h.09l.2,.59h-.08l-.06-.19h-.21Zm.19-.06l-.06-.17s-.02-.07-.03-.11h0s-.02,.07-.03,.11l-.06,.17h.18Z"/><path class="c" d="M19.98,11.43h-.18v-.07h.44v.07h-.18v.53h-.08v-.53Z"/></g><path class="c" d="M14.68,14.88s.08,.04,.14,.04c.08,0,.12-.04,.12-.1,0-.06-.03-.09-.11-.12-.1-.03-.16-.08-.16-.17,0-.09,.08-.16,.19-.16,.06,0,.1,.01,.13,.03l-.02,.06s-.06-.03-.11-.03c-.08,0-.11,.05-.11,.09,0,.06,.04,.08,.12,.11,.1,.04,.15,.09,.15,.17,0,.09-.07,.17-.21,.17-.06,0-.12-.02-.15-.04l.02-.06Z"/><path class="c" d="M17.35,15.79c0,.2-.12,.31-.28,.31s-.27-.12-.27-.3c0-.19,.12-.31,.28-.31s.27,.12,.27,.3Zm-.46,0c0,.13,.07,.24,.19,.24s.19-.11,.19-.25c0-.12-.06-.24-.19-.24s-.19,.12-.19,.25Z"/><g><path class="c" d="M25.68,18c0,.2-.12,.31-.28,.31s-.27-.12-.27-.3c0-.19,.12-.31,.28-.31s.27,.12,.27,.3Zm-.46,0c0,.13,.07,.24,.19,.24s.19-.11,.19-.25c0-.12-.06-.24-.19-.24s-.19,.12-.19,.25Z"/><path class="c" d="M25.85,17.71v.25h.29v-.25h.08v.59h-.08v-.28h-.29v.28h-.08v-.59h.08Z"/></g><g><path class="c" d="M17.75,18c0,.2-.12,.31-.28,.31s-.27-.12-.27-.3c0-.19,.12-.31,.28-.31s.27,.12,.27,.3Zm-.46,0c0,.13,.07,.24,.19,.24s.19-.11,.19-.25c0-.12-.06-.24-.19-.24s-.19,.12-.19,.25Z"/><path class="c" d="M17.92,17.71v.25h.29v-.25h.08v.59h-.08v-.28h-.29v.28h-.08v-.59h.08Z"/></g><path class="c" d="M22.5,14.88s.08,.04,.14,.04c.08,0,.12-.04,.12-.1,0-.06-.03-.09-.11-.12-.1-.03-.16-.08-.16-.17,0-.09,.08-.16,.19-.16,.06,0,.1,.01,.13,.03l-.02,.06s-.06-.03-.11-.03c-.08,0-.11,.05-.11,.09,0,.06,.04,.08,.12,.11,.1,.04,.15,.09,.15,.17,0,.09-.07,.17-.21,.17-.06,0-.12-.02-.15-.04l.02-.06Z"/><path class="c" d="M25.16,15.79c0,.2-.12,.31-.28,.31s-.27-.12-.27-.3c0-.19,.12-.31,.28-.31s.27,.12,.27,.3Zm-.46,0c0,.13,.07,.24,.19,.24s.19-.11,.19-.25c0-.12-.06-.24-.19-.24s-.19,.12-.19,.25Z"/><g><path class="c" d="M25.68,20.21c0,.2-.12,.31-.28,.31s-.27-.12-.27-.3c0-.19,.12-.31,.28-.31s.27,.12,.27,.3Zm-.46,0c0,.13,.07,.24,.19,.24s.19-.11,.19-.25c0-.12-.06-.24-.19-.24s-.19,.12-.19,.25Z"/><path class="c" d="M25.85,19.92v.25h.29v-.25h.08v.59h-.08v-.28h-.29v.28h-.08v-.59h.08Z"/></g></g><g><path class="b" d="M5.64,11.62h-.04c0,.33-.14,.64-.35,.86-.22,.22-.52,.35-.86,.35-.33,0-.64-.14-.86-.35-.22-.22-.35-.52-.35-.86,0-.33,.14-.64,.35-.86,.22-.22,.52-.35,.86-.35,.33,0,.64,.14,.86,.35,.22,.22,.35,.52,.35,.86h.07c0-.71-.58-1.28-1.28-1.28-.71,0-1.28,.58-1.28,1.28,0,.71,.58,1.28,1.28,1.28,.71,0,1.28-.58,1.28-1.28h-.04Z"/><path class="b" d="M8.13,11.62h-.04c0,.33-.14,.64-.35,.86-.22,.22-.52,.35-.86,.35-.33,0-.64-.14-.86-.35-.22-.22-.35-.52-.35-.86,0-.33,.14-.64,.35-.86,.22-.22,.52-.35,.86-.35,.33,0,.64,.14,.86,.35,.22,.22,.35,.52,.35,.86h.07c0-.71-.58-1.28-1.28-1.28-.71,0-1.28,.58-1.28,1.28,0,.71,.58,1.28,1.28,1.28,.71,0,1.28-.58,1.28-1.28h-.04Z"/><path class="b" d="M10.63,11.62h-.04c0,.33-.14,.64-.35,.86-.22,.22-.52,.35-.86,.35-.33,0-.64-.14-.86-.35-.22-.22-.35-.52-.35-.86,0-.33,.14-.64,.35-.86,.22-.22,.52-.35,.86-.35,.33,0,.64,.14,.86,.35,.22,.22,.35,.52,.35,.86h.07c0-.71-.58-1.28-1.28-1.28-.71,0-1.28,.58-1.28,1.28,0,.71,.58,1.28,1.28,1.28,.71,0,1.28-.58,1.28-1.28h-.04Z"/><path class="b" d="M13.12,11.62h-.04c0,.33-.14,.64-.35,.86-.22,.22-.52,.35-.86,.35-.33,0-.64-.14-.86-.35-.22-.22-.35-.52-.35-.86,0-.33,.14-.64,.35-.86,.22-.22,.52-.35,.86-.35,.33,0,.64,.14,.86,.35,.22,.22,.35,.52,.35,.86h.07c0-.71-.58-1.28-1.28-1.28-.71,0-1.28,.58-1.28,1.28,0,.71,.58,1.28,1.28,1.28,.71,0,1.28-.58,1.28-1.28h-.04Z"/><path class="b" d="M16.06,11.62h-.04c0,.33-.14,.64-.35,.86-.22,.22-.52,.35-.86,.35-.33,0-.64-.14-.86-.35-.22-.22-.35-.52-.35-.86,0-.33,.14-.64,.35-.86,.22-.22,.52-.35,.86-.35,.33,0,.64,.14,.86,.35,.22,.22,.35,.52,.35,.86h.07c0-.71-.58-1.28-1.28-1.28-.71,0-1.28,.58-1.28,1.28,0,.71,.58,1.28,1.28,1.28,.71,0,1.28-.58,1.28-1.28h-.04Z"/><path class="b" d="M24.02,11.62h-.04c0,.33-.14,.64-.35,.86-.22,.22-.52,.35-.86,.35-.33,0-.64-.14-.86-.35-.22-.22-.35-.52-.35-.86,0-.33,.14-.64,.35-.86,.22-.22,.52-.35,.86-.35,.33,0,.64,.14,.86,.35,.22,.22,.35,.52,.35,.86h.07c0-.71-.58-1.28-1.28-1.28-.71,0-1.28,.58-1.28,1.28,0,.71,.58,1.28,1.28,1.28,.71,0,1.28-.58,1.28-1.28h-.04Z"/><path class="b" d="M18.56,11.62h-.04c0,.33-.14,.64-.35,.86-.22,.22-.52,.35-.86,.35-.33,0-.64-.14-.86-.35-.22-.22-.35-.52-.35-.86,0-.33,.14-.64,.35-.86,.22-.22,.52-.35,.86-.35,.33,0,.64,.14,.86,.35,.22,.22,.35,.52,.35,.86h.07c0-.71-.58-1.28-1.28-1.28-.71,0-1.28,.58-1.28,1.28,0,.71,.58,1.28,1.28,1.28,.71,0,1.28-.58,1.28-1.28h-.04Z"/><path class="b" d="M21.05,11.62h-.04c0,.33-.14,.64-.35,.86-.22,.22-.52,.35-.86,.35-.33,0-.64-.14-.86-.35-.22-.22-.35-.52-.35-.86,0-.33,.14-.64,.35-.86,.22-.22,.52-.35,.86-.35,.33,0,.64,.14,.86,.35,.22,.22,.35,.52,.35,.86h.07c0-.71-.58-1.28-1.28-1.28-.71,0-1.28,.58-1.28,1.28,0,.71,.58,1.28,1.28,1.28,.71,0,1.28-.58,1.28-1.28h-.04Z"/><path class="b" d="M14.59,9.64h-.04c0,.33-.14,.64-.35,.86-.22,.22-.52,.35-.86,.35-.33,0-.64-.14-.86-.35-.22-.22-.35-.52-.35-.86,0-.33,.14-.64,.35-.86,.22-.22,.52-.35,.86-.35,.33,0,.64,.14,.86,.35,.22,.22,.35,.52,.35,.86h.07c0-.71-.58-1.28-1.28-1.28-.71,0-1.28,.58-1.28,1.28,0,.71,.58,1.28,1.28,1.28,.71,0,1.28-.58,1.28-1.28h-.04Z"/><path class="b" d="M22.52,9.64h-.04c0,.33-.14,.64-.35,.86-.22,.22-.52,.35-.86,.35-.33,0-.64-.14-.86-.35-.22-.22-.35-.52-.35-.86,0-.33,.14-.64,.35-.86,.22-.22,.52-.35,.86-.35,.33,0,.64,.14,.86,.35,.22,.22,.35,.52,.35,.86h.07c0-.71-.58-1.28-1.28-1.28-.71,0-1.28,.58-1.28,1.28,0,.71,.58,1.28,1.28,1.28,.71,0,1.28-.58,1.28-1.28h-.04Z"/><path class="b" d="M6.99,13.02v.02s-.05,.03-.08,.05c-.03,.02-.06,.05-.06,.1,0,.03,.02,.06,.03,.08,.03,.03,.06,.04,.08,.05l.03,.04v.02s-.05,.03-.08,.05c-.03,.02-.06,.05-.06,.1,0,.03,.02,.06,.03,.08,.03,.03,.06,.04,.08,.05l.03,.04v.02s-.05,.03-.08,.05c-.03,.02-.06,.05-.06,.1,0,.03,.02,.06,.03,.08,.03,.03,.06,.04,.08,.05l.03,.04v.02s-.05,.03-.08,.05c-.03,.02-.06,.05-.06,.1h.07v-.02s.05-.03,.08-.05c.03-.02,.06-.05,.06-.1,0-.03-.02-.06-.03-.08-.03-.03-.06-.04-.08-.05l-.03-.04v-.02s.05-.03,.08-.05c.03-.02,.06-.05,.06-.1,0-.03-.02-.06-.03-.08-.03-.03-.06-.04-.08-.05l-.03-.04v-.02s.05-.03,.08-.05c.03-.02,.06-.05,.06-.1,0-.03-.02-.06-.03-.08-.03-.03-.06-.04-.08-.05l-.03-.04v-.02s.05-.03,.08-.05c.03-.02,.06-.05,.06-.1h-.07Z"/><polygon class="b" points="7.15 15.02 7.58 15.81 6.94 16.95 5.56 16.95 5.56 17.02 6.98 17.02 7.66 15.81 7.21 14.98 7.15 15.02 7.15 15.02"/><polyline class="b" points="7.56 15.73 8.51 15.73 8.51 15.66 7.56 15.66"/><polyline class="b" points="7.56 15.95 8.51 15.95 8.51 15.88 7.56 15.88"/><path class="b" d="M15,13.02v.02s-.05,.03-.08,.05c-.03,.02-.06,.05-.06,.1,0,.03,.02,.06,.03,.08,.03,.03,.06,.04,.08,.05l.03,.04v.02s-.05,.03-.08,.05c-.03,.02-.06,.05-.06,.1,0,.03,.02,.06,.03,.08,.03,.03,.06,.04,.08,.05l.03,.04v.02s-.05,.03-.08,.05c-.03,.02-.06,.05-.06,.1,0,.03,.02,.06,.03,.08,.03,.03,.06,.04,.08,.05l.03,.04v.02s-.05,.03-.08,.05c-.03,.02-.06,.05-.06,.1h.07v-.02s.05-.03,.08-.05c.03-.02,.06-.05,.06-.1,0-.03-.02-.06-.03-.08-.03-.03-.06-.04-.08-.05l-.03-.04v-.02s.05-.03,.08-.05c.03-.02,.06-.05,.06-.1,0-.03-.02-.06-.03-.08-.03-.03-.06-.04-.08-.05l-.03-.04v-.02s.05-.03,.08-.05c.03-.02,.06-.05,.06-.1,0-.03-.02-.06-.03-.08-.03-.03-.06-.04-.08-.05l-.03-.04v-.02s.05-.03,.08-.05c.03-.02,.06-.05,.06-.1h-.07Z"/><polygon class="b" points="15.15 15.02 15.58 15.81 14.92 16.98 15.58 18.02 14.94 19.16 13.46 19.16 13.46 19.23 14.98 19.23 15.66 18.02 15 16.98 15.66 15.81 15.21 14.98 15.15 15.02 15.15 15.02"/><polyline class="b" points="15.56 15.73 16.51 15.73 16.51 15.66 15.56 15.66"/><polyline class="b" points="15.56 15.95 16.51 15.95 16.51 15.88 15.56 15.88"/><polygon class="b" points="14.96 16.98 14.89 17 14.89 16.97 14.96 16.98"/><polygon class="b" points="14.81 17.01 14.74 17.02 14.74 16.94 14.81 16.96 14.81 17.01"/><polygon class="b" points="14.67 17.03 14.59 17.05 14.59 16.92 14.67 16.93 14.67 17.03"/><polygon class="b" points="14.52 17.06 14.45 17.07 14.45 16.89 14.52 16.9 14.52 17.06"/><polygon class="b" points="14.37 17.09 14.3 17.1 14.3 16.87 14.37 16.88 14.37 17.09"/><polygon class="b" points="14.23 17.11 14.15 17.13 14.15 16.84 14.23 16.85 14.23 17.11"/><polygon class="b" points="14.08 17.14 14.01 17.15 14.01 16.81 14.08 16.83 14.08 17.14"/><polygon class="b" points="13.93 17.16 13.86 17.18 13.86 16.79 13.93 16.8 13.93 17.16"/><polygon class="b" points="13.79 17.19 13.71 17.2 13.71 16.76 13.79 16.77 13.79 17.19"/><polygon class="b" points="13.64 17.22 13.57 17.23 13.57 16.74 13.64 16.75 13.64 17.22"/><polygon class="b" points="15.62 18.01 15.69 17.99 15.69 18.02 15.62 18.01"/><polygon class="b" points="15.77 17.98 15.84 17.97 15.84 18.05 15.77 18.03 15.77 17.98"/><polygon class="b" points="15.91 17.96 15.99 17.94 15.99 18.07 15.91 18.06 15.91 17.96"/><polygon class="b" points="16.06 17.93 16.13 17.92 16.13 18.1 16.06 18.09 16.06 17.93"/><polygon class="b" points="16.21 17.9 16.28 17.89 16.28 18.12 16.21 18.11 16.21 17.9"/><polygon class="b" points="16.36 17.88 16.43 17.86 16.43 18.15 16.36 18.14 16.36 17.88"/><polygon class="b" points="16.5 17.85 16.58 17.84 16.58 18.18 16.5 18.16 16.5 17.85"/><polygon class="b" points="16.65 17.83 16.72 17.81 16.72 18.2 16.65 18.19 16.65 17.83"/><polygon class="b" points="16.8 17.8 16.87 17.79 16.87 18.23 16.8 18.22 16.8 17.8"/><polygon class="b" points="16.94 17.77 17.02 17.76 17.02 18.25 16.94 18.24 16.94 17.77"/><path class="b" d="M22.81,13.02v.02s-.05,.03-.08,.05c-.03,.02-.06,.05-.06,.1,0,.03,.02,.06,.03,.08,.03,.03,.06,.04,.08,.05l.03,.04v.02s-.05,.03-.08,.05c-.03,.02-.06,.05-.06,.1,0,.03,.02,.06,.03,.08,.03,.03,.06,.04,.08,.05l.03,.04v.02s-.05,.03-.08,.05c-.03,.02-.06,.05-.06,.1,0,.03,.02,.06,.03,.08,.03,.03,.06,.04,.08,.05l.03,.04v.02s-.05,.03-.08,.05c-.03,.02-.06,.05-.06,.1h.07v-.02s.05-.03,.08-.05c.03-.02,.06-.05,.06-.1,0-.03-.02-.06-.03-.08-.03-.03-.06-.04-.08-.05l-.03-.04v-.02s.05-.03,.08-.05c.03-.02,.06-.05,.06-.1,0-.03-.02-.06-.03-.08-.03-.03-.06-.04-.08-.05l-.03-.04v-.02s.05-.03,.08-.05c.03-.02,.06-.05,.06-.1,0-.03-.02-.06-.03-.08-.03-.03-.06-.04-.08-.05l-.03-.04v-.02s.05-.03,.08-.05c.03-.02,.06-.05,.06-.1h-.07Z"/><polyline class="b" points="23.37 15.73 24.33 15.73 24.33 15.66 23.37 15.66"/><polyline class="b" points="23.37 15.95 24.33 15.95 24.33 15.88 23.37 15.88"/><polygon class="b" points="22.78 16.98 21.33 17.24 21.33 16.73 22.78 16.98"/><polygon class="b" points="23.44 18.01 24.89 17.75 24.89 18.26 23.44 18.01"/><polygon class="b" points="22.78 19.19 22.7 19.21 22.7 19.18 22.78 19.19"/><polygon class="b" points="22.63 19.22 22.56 19.23 22.56 19.15 22.63 19.17 22.63 19.22"/><polygon class="b" points="22.48 19.25 22.41 19.26 22.41 19.13 22.48 19.14 22.48 19.25"/><polygon class="b" points="22.34 19.27 22.26 19.28 22.26 19.1 22.34 19.12 22.34 19.27"/><polygon class="b" points="22.19 19.3 22.11 19.31 22.11 19.08 22.19 19.09 22.19 19.3"/><polygon class="b" points="22.04 19.32 21.97 19.34 21.97 19.05 22.04 19.06 22.04 19.32"/><polygon class="b" points="21.89 19.35 21.82 19.36 21.82 19.02 21.89 19.04 21.89 19.35"/><polygon class="b" points="21.75 19.38 21.67 19.39 21.67 19 21.75 19.01 21.75 19.38"/><polygon class="b" points="21.6 19.4 21.53 19.41 21.53 18.97 21.6 18.99 21.6 19.4"/><polygon class="b" points="21.45 19.43 21.38 19.44 21.38 18.95 21.45 18.96 21.45 19.43"/><polygon class="b" points="23.44 20.22 23.51 20.21 23.51 20.23 23.44 20.22"/><polygon class="b" points="23.58 20.19 23.66 20.18 23.66 20.26 23.58 20.24 23.58 20.19"/><polygon class="b" points="23.73 20.17 23.8 20.15 23.8 20.28 23.73 20.27 23.73 20.17"/><polygon class="b" points="23.88 20.14 23.95 20.13 23.95 20.31 23.88 20.3 23.88 20.14"/><polygon class="b" points="24.02 20.11 24.1 20.1 24.1 20.34 24.02 20.32 24.02 20.11"/><polygon class="b" points="24.17 20.09 24.24 20.08 24.24 20.36 24.17 20.35 24.17 20.09"/><polygon class="b" points="24.32 20.06 24.39 20.05 24.39 20.39 24.32 20.37 24.32 20.06"/><polygon class="b" points="24.46 20.04 24.54 20.02 24.54 20.41 24.46 20.4 24.46 20.04"/><polygon class="b" points="24.61 20.01 24.68 20 24.68 20.44 24.61 20.43 24.61 20.01"/><polygon class="b" points="24.76 19.98 24.83 19.97 24.83 20.47 24.76 20.45 24.76 19.98"/><polygon class="b" points="22.96 15.02 23.39 15.81 22.73 16.98 23.39 18.02 22.73 19.19 23.39 20.23 22.75 21.37 21.33 21.37 21.33 21.44 22.8 21.44 23.48 20.23 22.82 19.19 23.48 18.02 22.82 16.98 23.48 15.81 23.03 14.98 22.96 15.02 22.96 15.02"/></g><path class="b" d="M29.86,15h-.14c0,4.07-1.65,7.75-4.31,10.41-2.67,2.67-6.35,4.31-10.41,4.31-4.07,0-7.75-1.65-10.41-4.31C1.92,22.75,.27,19.07,.27,15c0-4.07,1.65-7.75,4.31-10.41C7.25,1.92,10.93,.27,15,.27c4.07,0,7.75,1.65,10.41,4.31,2.67,2.67,4.31,6.35,4.31,10.41h.27C30,6.72,23.28,0,15,0,6.72,0,0,6.72,0,15c0,8.28,6.72,15,15,15,8.28,0,15-6.72,15-15h-.14Z"/></g><g><path class="c" d="M44.65,23.07c.93-.58,1.55-1.38,1.87-2.4l1.26,.36c-.35,1.27-1.12,2.27-2.29,3.03-1.17,.75-2.5,1.13-3.99,1.13-1.95,0-3.61-.66-4.98-1.98-1.37-1.32-2.05-3.04-2.05-5.16s.69-3.8,2.07-5.14,3.03-2.01,4.97-2.01c1.47,0,2.79,.39,3.95,1.17,1.16,.78,1.95,1.82,2.36,3.13l-1.28,.42c-.32-1.08-.94-1.92-1.87-2.53-.93-.6-1.98-.91-3.15-.91-1.58,0-2.93,.55-4.03,1.65-1.11,1.1-1.66,2.5-1.66,4.21s.55,3.19,1.65,4.27c1.1,1.08,2.45,1.62,4.05,1.62,1.17,0,2.22-.29,3.15-.87Z"/><path class="c" d="M51.85,24.88V4.78h1.37V24.88h-1.37Z"/><path class="c" d="M70.74,24.88h-1.37v-2.9c-.54,1.02-1.29,1.82-2.25,2.39-.96,.57-2.07,.85-3.34,.85-1.66,0-2.99-.54-3.99-1.62-1-1.08-1.51-2.5-1.51-4.27V11.23h1.34v7.9c0,1.43,.4,2.59,1.19,3.48,.79,.88,1.84,1.33,3.14,1.33,1.64,0,2.95-.53,3.94-1.58,.99-1.05,1.48-2.48,1.48-4.28v-6.84h1.37v13.65Z"/><path class="c" d="M76.02,20.81c.09,1,.57,1.8,1.42,2.37s1.93,.87,3.21,.87c1.15,0,2.08-.25,2.79-.74,.71-.49,1.06-1.18,1.06-2.05,0-.67-.22-1.19-.67-1.55-.45-.36-1.09-.64-1.93-.82l-3.35-.73c-2.25-.48-3.38-1.59-3.38-3.32,0-1.17,.46-2.12,1.38-2.85s2.13-1.09,3.61-1.09,2.64,.34,3.57,1.02c.93,.68,1.53,1.57,1.79,2.67l-1.26,.33c-.19-.87-.64-1.57-1.37-2.09s-1.65-.78-2.76-.78-1.97,.25-2.62,.74c-.65,.49-.98,1.15-.98,1.97,0,.67,.21,1.17,.64,1.51s1.05,.6,1.87,.78l3.29,.73c2.33,.54,3.49,1.67,3.49,3.41,0,1.25-.48,2.23-1.45,2.94-.97,.72-2.24,1.07-3.82,1.07s-2.96-.36-4.02-1.07c-1.06-.72-1.68-1.71-1.87-2.97l1.34-.33Z"/><path class="c" d="M97.37,24.1c-.95,.73-1.94,1.09-2.99,1.09-1.23,0-2.21-.37-2.96-1.1-.74-.73-1.12-1.75-1.12-3.06V12.4h-2.99v-1.17h2.99V6.74h1.37v4.49h5.11v1.17h-5.11v8.54c0,.91,.26,1.63,.77,2.16,.51,.53,1.19,.8,2.02,.8s1.65-.31,2.37-.92l.53,1.12Z"/><path class="c" d="M112.31,18.18h-12.36c.02,1.75,.59,3.15,1.7,4.21s2.4,1.59,3.85,1.59c2.6,0,4.37-1.16,5.3-3.49l1.2,.28c-.52,1.43-1.34,2.53-2.46,3.28-1.12,.75-2.47,1.13-4.05,1.13-1.84,0-3.45-.65-4.83-1.95-1.38-1.3-2.07-3.01-2.07-5.14s.7-3.88,2.09-5.21c1.4-1.33,3.05-2,4.97-2s3.44,.63,4.67,1.88c1.24,1.26,1.89,2.89,1.97,4.9v.5Zm-10.37-4.69c-1.11,.91-1.75,2.12-1.94,3.63h10.94c-.17-1.56-.73-2.79-1.7-3.67-.97-.88-2.16-1.33-3.57-1.33s-2.62,.46-3.73,1.37Z"/><path class="c" d="M124.48,11.2l-.14,1.28c-.19-.04-.46-.06-.81-.06-1.81,0-3.22,.65-4.26,1.94-1.03,1.29-1.55,2.9-1.55,4.81v5.69h-1.37V11.23h1.37v3.82c.58-1.19,1.36-2.14,2.36-2.86,1-.72,2.14-1.07,3.45-1.07,.37,0,.69,.03,.95,.08Z"/><path class="c" d="M162.02,24.88l-6.39-15.04-6.39,15.04h-3.24l8.23-18.7h2.79l8.23,18.7h-3.24Z"/><path class="c" d="M181.65,8.79c-1.87-1.74-4.38-2.61-7.52-2.61h-6.53v2.71h6.53c2.23,0,4.01,.61,5.33,1.84,1.32,1.23,1.98,2.83,1.98,4.8s-.66,3.57-1.98,4.8c-1.32,1.23-3.1,1.84-5.33,1.84h-6.53v2.71h6.53c3.14,0,5.65-.87,7.52-2.61,1.87-1.74,2.8-3.99,2.8-6.74s-.93-5-2.8-6.74Z"/><path class="c" d="M136.56,8.89h6.53v-2.71h-6.53c-3.15,0-5.65,.87-7.52,2.61-1.87,1.74-2.8,3.99-2.8,6.74s.94,5,2.8,6.74c1.87,1.74,4.38,2.61,7.52,2.61h6.53v-2.71h-6.53c-2.24,0-4.01-.61-5.33-1.84-1.32-1.23-1.98-2.83-1.98-4.8s.66-3.57,1.98-4.8c1.32-1.23,3.1-1.84,5.33-1.84Z"/><path class="c" d="M155.63,20.92c-3.91,0-7.59-1.47-10.41-4.16l1.62-1.61c2.39,2.25,5.5,3.49,8.8,3.49s6.41-1.24,8.8-3.49l1.62,1.61c-2.82,2.68-6.5,4.16-10.41,4.16Z"/></g></svg>