<?xml version="1.0" encoding="UTF-8"?><svg id="a" xmlns="http://www.w3.org/2000/svg" viewBox="0 0 133.72 30"><defs><style>.b{fill:#4d4d4d;}.c{fill:#29abe2;}</style></defs><g><g><g><path class="c" d="M4,11.77l-.06,.19h-.08l.2-.59h.09l.2,.59h-.08l-.06-.19h-.21Zm.19-.06l-.06-.17s-.02-.07-.03-.11h0s-.02,.07-.03,.11l-.06,.17h.18Z"/><path class="c" d="M4.48,11.43h-.18v-.07h.44v.07h-.18v.53h-.08v-.53Z"/></g><g><path class="c" d="M6.2,11.77l-.06,.19h-.08l.2-.59h.09l.2,.59h-.08l-.06-.19h-.21Zm.19-.06l-.06-.17s-.02-.07-.03-.11h0s-.02,.07-.03,.11l-.06,.17h.18Z"/><path class="c" d="M7.04,11.94s-.08,.03-.16,.03c-.17,0-.29-.11-.29-.3s.13-.31,.31-.31c.07,0,.12,.02,.14,.03l-.02,.06s-.07-.02-.12-.02c-.14,0-.23,.09-.23,.24,0,.15,.08,.24,.23,.24,.05,0,.09,0,.13-.02l.02,.06Z"/><path class="c" d="M7.14,11.37s.09-.01,.15-.01c.08,0,.13,.02,.17,.05,.03,.03,.05,.07,.05,.12s-.02,.1-.05,.13c-.04,.04-.11,.07-.18,.07-.02,0-.04,0-.06,0v.24h-.08v-.59Zm.08,.29s.04,0,.06,0c.09,0,.15-.04,.15-.13s-.06-.12-.14-.12c-.03,0-.06,0-.07,0v.23Z"/></g><path class="c" d="M6.68,14.88s.08,.04,.14,.04c.08,0,.12-.04,.12-.1,0-.06-.03-.09-.11-.12-.1-.03-.16-.08-.16-.17,0-.09,.08-.16,.19-.16,.06,0,.1,.01,.13,.03l-.02,.06s-.06-.03-.11-.03c-.08,0-.11,.05-.11,.09,0,.06,.04,.08,.12,.11,.1,.04,.15,.09,.15,.17,0,.09-.07,.17-.21,.17-.06,0-.12-.02-.15-.04l.02-.06Z"/><path class="c" d="M9.35,15.79c0,.2-.12,.31-.28,.31s-.27-.12-.27-.3c0-.19,.12-.31,.28-.31s.27,.12,.27,.3Zm-.46,0c0,.13,.07,.24,.19,.24s.19-.11,.19-.25c0-.12-.06-.24-.19-.24s-.19,.12-.19,.25Z"/><g><path class="c" d="M14.2,11.77l-.06,.19h-.08l.2-.59h.09l.2,.59h-.08l-.06-.19h-.21Zm.19-.06l-.06-.17s-.02-.07-.03-.11h0s-.02,.07-.03,.11l-.06,.17h.18Z"/><path class="c" d="M15.05,11.94s-.08,.03-.16,.03c-.17,0-.29-.11-.29-.3s.13-.31,.31-.31c.07,0,.12,.02,.14,.03l-.02,.06s-.07-.02-.12-.02c-.14,0-.23,.09-.23,.24,0,.15,.08,.24,.23,.24,.05,0,.09,0,.13-.02l.02,.06Z"/><path class="c" d="M15.14,11.37s.09-.01,.15-.01c.08,0,.13,.02,.17,.05,.03,.03,.05,.07,.05,.12s-.02,.1-.05,.13c-.04,.04-.11,.07-.18,.07-.02,0-.04,0-.06,0v.24h-.08v-.59Zm.08,.29s.04,0,.06,0c.09,0,.15-.04,.15-.13s-.06-.12-.14-.12c-.03,0-.06,0-.07,0v.23Z"/></g><g><path class="c" d="M9.04,11.37h.08v.29h0s.03-.04,.05-.06l.18-.22h.1l-.22,.25,.23,.34h-.09l-.2-.29-.06,.07v.23h-.08v-.59Z"/><path class="c" d="M9.51,11.87s.08,.04,.14,.04c.08,0,.12-.04,.12-.1,0-.06-.03-.09-.11-.12-.1-.03-.16-.08-.16-.17,0-.09,.08-.16,.19-.16,.06,0,.1,.01,.13,.03l-.02,.06s-.06-.03-.11-.03c-.08,0-.11,.05-.11,.09,0,.06,.04,.08,.12,.11,.1,.04,.15,.09,.15,.17,0,.09-.07,.17-.21,.17-.06,0-.12-.02-.15-.04l.02-.06Z"/></g><g><path class="c" d="M12.91,9.35h.08v.29h0s.03-.04,.05-.06l.18-.22h.1l-.22,.25,.23,.34h-.09l-.2-.29-.06,.07v.23h-.08v-.59Z"/><path class="c" d="M13.38,9.35s.09-.01,.15-.01c.08,0,.13,.01,.17,.05,.03,.03,.05,.07,.05,.11,0,.08-.05,.13-.11,.15h0s.07,.06,.09,.12c.02,.08,.03,.14,.05,.16h-.08s-.02-.07-.04-.14c-.02-.08-.05-.11-.12-.12h-.07v.26h-.08v-.59Zm.08,.27h.08c.08,0,.13-.04,.13-.11,0-.08-.06-.11-.14-.11-.04,0-.06,0-.08,0v.22Z"/></g><g><path class="c" d="M11.56,11.77l-.06,.19h-.08l.2-.59h.09l.2,.59h-.08l-.06-.19h-.21Zm.19-.06l-.06-.17s-.02-.07-.03-.11h0s-.02,.07-.03,.11l-.06,.17h.18Z"/><path class="c" d="M12.05,11.43h-.18v-.07h.44v.07h-.18v.53h-.08v-.53Z"/></g><g><path class="c" d="M22.26,11.77l-.06,.19h-.08l.2-.59h.09l.2,.59h-.08l-.06-.19h-.21Zm.19-.06l-.06-.17s-.02-.07-.03-.11h0s-.02,.07-.03,.11l-.06,.17h.18Z"/><path class="c" d="M23.1,11.94s-.08,.03-.16,.03c-.17,0-.29-.11-.29-.3s.13-.31,.31-.31c.07,0,.12,.02,.14,.03l-.02,.06s-.07-.02-.12-.02c-.14,0-.23,.09-.23,.24,0,.15,.08,.24,.23,.24,.05,0,.09,0,.13-.02l.02,.06Z"/><path class="c" d="M23.2,11.37s.09-.01,.15-.01c.08,0,.13,.02,.17,.05,.03,.03,.05,.07,.05,.12s-.02,.1-.05,.13c-.04,.04-.11,.07-.18,.07-.02,0-.04,0-.06,0v.24h-.08v-.59Zm.08,.29s.04,0,.06,0c.09,0,.15-.04,.15-.13s-.06-.12-.14-.12c-.03,0-.06,0-.07,0v.23Z"/></g><g><path class="c" d="M16.97,11.37h.08v.29h0s.03-.04,.05-.06l.18-.22h.1l-.22,.25,.23,.34h-.09l-.2-.29-.06,.07v.23h-.08v-.59Z"/><path class="c" d="M17.44,11.87s.08,.04,.14,.04c.08,0,.12-.04,.12-.1,0-.06-.03-.09-.11-.12-.1-.03-.16-.08-.16-.17,0-.09,.08-.16,.19-.16,.06,0,.1,.01,.13,.03l-.02,.06s-.06-.03-.11-.03c-.08,0-.11,.05-.11,.09,0,.06,.04,.08,.12,.11,.1,.04,.15,.09,.15,.17,0,.09-.07,.17-.21,.17-.06,0-.12-.02-.15-.04l.02-.06Z"/></g><g><path class="c" d="M20.89,9.33h.08v.29h0s.03-.04,.05-.06l.18-.22h.1l-.22,.25,.23,.34h-.09l-.2-.29-.06,.07v.23h-.08v-.59Z"/><path class="c" d="M21.37,9.34s.09-.01,.15-.01c.08,0,.13,.01,.17,.05,.03,.03,.05,.07,.05,.11,0,.08-.05,.13-.11,.15h0s.07,.06,.09,.12c.02,.08,.03,.14,.05,.16h-.08s-.02-.07-.04-.14c-.02-.08-.05-.11-.12-.12h-.07v.26h-.08v-.59Zm.08,.27h.08c.08,0,.13-.04,.13-.11,0-.08-.06-.11-.14-.11-.04,0-.06,0-.08,0v.22Z"/></g><g><path class="c" d="M19.49,11.77l-.06,.19h-.08l.2-.59h.09l.2,.59h-.08l-.06-.19h-.21Zm.19-.06l-.06-.17s-.02-.07-.03-.11h0s-.02,.07-.03,.11l-.06,.17h.18Z"/><path class="c" d="M19.98,11.43h-.18v-.07h.44v.07h-.18v.53h-.08v-.53Z"/></g><path class="c" d="M14.68,14.88s.08,.04,.14,.04c.08,0,.12-.04,.12-.1,0-.06-.03-.09-.11-.12-.1-.03-.16-.08-.16-.17,0-.09,.08-.16,.19-.16,.06,0,.1,.01,.13,.03l-.02,.06s-.06-.03-.11-.03c-.08,0-.11,.05-.11,.09,0,.06,.04,.08,.12,.11,.1,.04,.15,.09,.15,.17,0,.09-.07,.17-.21,.17-.06,0-.12-.02-.15-.04l.02-.06Z"/><path class="c" d="M17.35,15.79c0,.2-.12,.31-.28,.31s-.27-.12-.27-.3c0-.19,.12-.31,.28-.31s.27,.12,.27,.3Zm-.46,0c0,.13,.07,.24,.19,.24s.19-.11,.19-.25c0-.12-.06-.24-.19-.24s-.19,.12-.19,.25Z"/><g><path class="c" d="M25.68,18c0,.2-.12,.31-.28,.31s-.27-.12-.27-.3c0-.19,.12-.31,.28-.31s.27,.12,.27,.3Zm-.46,0c0,.13,.07,.24,.19,.24s.19-.11,.19-.25c0-.12-.06-.24-.19-.24s-.19,.12-.19,.25Z"/><path class="c" d="M25.85,17.71v.25h.29v-.25h.08v.59h-.08v-.28h-.29v.28h-.08v-.59h.08Z"/></g><g><path class="c" d="M17.75,18c0,.2-.12,.31-.28,.31s-.27-.12-.27-.3c0-.19,.12-.31,.28-.31s.27,.12,.27,.3Zm-.46,0c0,.13,.07,.24,.19,.24s.19-.11,.19-.25c0-.12-.06-.24-.19-.24s-.19,.12-.19,.25Z"/><path class="c" d="M17.92,17.71v.25h.29v-.25h.08v.59h-.08v-.28h-.29v.28h-.08v-.59h.08Z"/></g><path class="c" d="M22.5,14.88s.08,.04,.14,.04c.08,0,.12-.04,.12-.1,0-.06-.03-.09-.11-.12-.1-.03-.16-.08-.16-.17,0-.09,.08-.16,.19-.16,.06,0,.1,.01,.13,.03l-.02,.06s-.06-.03-.11-.03c-.08,0-.11,.05-.11,.09,0,.06,.04,.08,.12,.11,.1,.04,.15,.09,.15,.17,0,.09-.07,.17-.21,.17-.06,0-.12-.02-.15-.04l.02-.06Z"/><path class="c" d="M25.16,15.79c0,.2-.12,.31-.28,.31s-.27-.12-.27-.3c0-.19,.12-.31,.28-.31s.27,.12,.27,.3Zm-.46,0c0,.13,.07,.24,.19,.24s.19-.11,.19-.25c0-.12-.06-.24-.19-.24s-.19,.12-.19,.25Z"/><g><path class="c" d="M25.68,20.21c0,.2-.12,.31-.28,.31s-.27-.12-.27-.3c0-.19,.12-.31,.28-.31s.27,.12,.27,.3Zm-.46,0c0,.13,.07,.24,.19,.24s.19-.11,.19-.25c0-.12-.06-.24-.19-.24s-.19,.12-.19,.25Z"/><path class="c" d="M25.85,19.92v.25h.29v-.25h.08v.59h-.08v-.28h-.29v.28h-.08v-.59h.08Z"/></g></g><g><path class="b" d="M5.64,11.62h-.04c0,.33-.14,.64-.35,.86-.22,.22-.52,.35-.86,.35-.33,0-.64-.14-.86-.35-.22-.22-.35-.52-.35-.86,0-.33,.14-.64,.35-.86,.22-.22,.52-.35,.86-.35,.33,0,.64,.14,.86,.35,.22,.22,.35,.52,.35,.86h.07c0-.71-.58-1.28-1.28-1.28-.71,0-1.28,.58-1.28,1.28,0,.71,.58,1.28,1.28,1.28,.71,0,1.28-.58,1.28-1.28h-.04Z"/><path class="b" d="M8.13,11.62h-.04c0,.33-.14,.64-.35,.86-.22,.22-.52,.35-.86,.35-.33,0-.64-.14-.86-.35-.22-.22-.35-.52-.35-.86,0-.33,.14-.64,.35-.86,.22-.22,.52-.35,.86-.35,.33,0,.64,.14,.86,.35,.22,.22,.35,.52,.35,.86h.07c0-.71-.58-1.28-1.28-1.28-.71,0-1.28,.58-1.28,1.28,0,.71,.58,1.28,1.28,1.28,.71,0,1.28-.58,1.28-1.28h-.04Z"/><path class="b" d="M10.63,11.62h-.04c0,.33-.14,.64-.35,.86-.22,.22-.52,.35-.86,.35-.33,0-.64-.14-.86-.35-.22-.22-.35-.52-.35-.86,0-.33,.14-.64,.35-.86,.22-.22,.52-.35,.86-.35,.33,0,.64,.14,.86,.35,.22,.22,.35,.52,.35,.86h.07c0-.71-.58-1.28-1.28-1.28-.71,0-1.28,.58-1.28,1.28,0,.71,.58,1.28,1.28,1.28,.71,0,1.28-.58,1.28-1.28h-.04Z"/><path class="b" d="M13.12,11.62h-.04c0,.33-.14,.64-.35,.86-.22,.22-.52,.35-.86,.35-.33,0-.64-.14-.86-.35-.22-.22-.35-.52-.35-.86,0-.33,.14-.64,.35-.86,.22-.22,.52-.35,.86-.35,.33,0,.64,.14,.86,.35,.22,.22,.35,.52,.35,.86h.07c0-.71-.58-1.28-1.28-1.28-.71,0-1.28,.58-1.28,1.28,0,.71,.58,1.28,1.28,1.28,.71,0,1.28-.58,1.28-1.28h-.04Z"/><path class="b" d="M16.06,11.62h-.04c0,.33-.14,.64-.35,.86-.22,.22-.52,.35-.86,.35-.33,0-.64-.14-.86-.35-.22-.22-.35-.52-.35-.86,0-.33,.14-.64,.35-.86,.22-.22,.52-.35,.86-.35,.33,0,.64,.14,.86,.35,.22,.22,.35,.52,.35,.86h.07c0-.71-.58-1.28-1.28-1.28-.71,0-1.28,.58-1.28,1.28,0,.71,.58,1.28,1.28,1.28,.71,0,1.28-.58,1.28-1.28h-.04Z"/><path class="b" d="M24.02,11.62h-.04c0,.33-.14,.64-.35,.86-.22,.22-.52,.35-.86,.35-.33,0-.64-.14-.86-.35-.22-.22-.35-.52-.35-.86,0-.33,.14-.64,.35-.86,.22-.22,.52-.35,.86-.35,.33,0,.64,.14,.86,.35,.22,.22,.35,.52,.35,.86h.07c0-.71-.58-1.28-1.28-1.28-.71,0-1.28,.58-1.28,1.28,0,.71,.58,1.28,1.28,1.28,.71,0,1.28-.58,1.28-1.28h-.04Z"/><path class="b" d="M18.56,11.62h-.04c0,.33-.14,.64-.35,.86-.22,.22-.52,.35-.86,.35-.33,0-.64-.14-.86-.35-.22-.22-.35-.52-.35-.86,0-.33,.14-.64,.35-.86,.22-.22,.52-.35,.86-.35,.33,0,.64,.14,.86,.35,.22,.22,.35,.52,.35,.86h.07c0-.71-.58-1.28-1.28-1.28-.71,0-1.28,.58-1.28,1.28,0,.71,.58,1.28,1.28,1.28,.71,0,1.28-.58,1.28-1.28h-.04Z"/><path class="b" d="M21.05,11.62h-.04c0,.33-.14,.64-.35,.86-.22,.22-.52,.35-.86,.35-.33,0-.64-.14-.86-.35-.22-.22-.35-.52-.35-.86,0-.33,.14-.64,.35-.86,.22-.22,.52-.35,.86-.35,.33,0,.64,.14,.86,.35,.22,.22,.35,.52,.35,.86h.07c0-.71-.58-1.28-1.28-1.28-.71,0-1.28,.58-1.28,1.28,0,.71,.58,1.28,1.28,1.28,.71,0,1.28-.58,1.28-1.28h-.04Z"/><path class="b" d="M14.59,9.64h-.04c0,.33-.14,.64-.35,.86-.22,.22-.52,.35-.86,.35-.33,0-.64-.14-.86-.35-.22-.22-.35-.52-.35-.86,0-.33,.14-.64,.35-.86,.22-.22,.52-.35,.86-.35,.33,0,.64,.14,.86,.35,.22,.22,.35,.52,.35,.86h.07c0-.71-.58-1.28-1.28-1.28-.71,0-1.28,.58-1.28,1.28,0,.71,.58,1.28,1.28,1.28,.71,0,1.28-.58,1.28-1.28h-.04Z"/><path class="b" d="M22.52,9.64h-.04c0,.33-.14,.64-.35,.86-.22,.22-.52,.35-.86,.35-.33,0-.64-.14-.86-.35-.22-.22-.35-.52-.35-.86,0-.33,.14-.64,.35-.86,.22-.22,.52-.35,.86-.35,.33,0,.64,.14,.86,.35,.22,.22,.35,.52,.35,.86h.07c0-.71-.58-1.28-1.28-1.28-.71,0-1.28,.58-1.28,1.28,0,.71,.58,1.28,1.28,1.28,.71,0,1.28-.58,1.28-1.28h-.04Z"/><path class="b" d="M6.99,13.02v.02s-.05,.03-.08,.05c-.03,.02-.06,.05-.06,.1,0,.03,.02,.06,.03,.08,.03,.03,.06,.04,.08,.05l.03,.04v.02s-.05,.03-.08,.05c-.03,.02-.06,.05-.06,.1,0,.03,.02,.06,.03,.08,.03,.03,.06,.04,.08,.05l.03,.04v.02s-.05,.03-.08,.05c-.03,.02-.06,.05-.06,.1,0,.03,.02,.06,.03,.08,.03,.03,.06,.04,.08,.05l.03,.04v.02s-.05,.03-.08,.05c-.03,.02-.06,.05-.06,.1h.07v-.02s.05-.03,.08-.05c.03-.02,.06-.05,.06-.1,0-.03-.02-.06-.03-.08-.03-.03-.06-.04-.08-.05l-.03-.04v-.02s.05-.03,.08-.05c.03-.02,.06-.05,.06-.1,0-.03-.02-.06-.03-.08-.03-.03-.06-.04-.08-.05l-.03-.04v-.02s.05-.03,.08-.05c.03-.02,.06-.05,.06-.1,0-.03-.02-.06-.03-.08-.03-.03-.06-.04-.08-.05l-.03-.04v-.02s.05-.03,.08-.05c.03-.02,.06-.05,.06-.1h-.07Z"/><polygon class="b" points="7.15 15.02 7.58 15.81 6.94 16.95 5.56 16.95 5.56 17.02 6.98 17.02 7.66 15.81 7.21 14.98 7.15 15.02 7.15 15.02"/><polyline class="b" points="7.56 15.73 8.51 15.73 8.51 15.66 7.56 15.66"/><polyline class="b" points="7.56 15.95 8.51 15.95 8.51 15.88 7.56 15.88"/><path class="b" d="M15,13.02v.02s-.05,.03-.08,.05c-.03,.02-.06,.05-.06,.1,0,.03,.02,.06,.03,.08,.03,.03,.06,.04,.08,.05l.03,.04v.02s-.05,.03-.08,.05c-.03,.02-.06,.05-.06,.1,0,.03,.02,.06,.03,.08,.03,.03,.06,.04,.08,.05l.03,.04v.02s-.05,.03-.08,.05c-.03,.02-.06,.05-.06,.1,0,.03,.02,.06,.03,.08,.03,.03,.06,.04,.08,.05l.03,.04v.02s-.05,.03-.08,.05c-.03,.02-.06,.05-.06,.1h.07v-.02s.05-.03,.08-.05c.03-.02,.06-.05,.06-.1,0-.03-.02-.06-.03-.08-.03-.03-.06-.04-.08-.05l-.03-.04v-.02s.05-.03,.08-.05c.03-.02,.06-.05,.06-.1,0-.03-.02-.06-.03-.08-.03-.03-.06-.04-.08-.05l-.03-.04v-.02s.05-.03,.08-.05c.03-.02,.06-.05,.06-.1,0-.03-.02-.06-.03-.08-.03-.03-.06-.04-.08-.05l-.03-.04v-.02s.05-.03,.08-.05c.03-.02,.06-.05,.06-.1h-.07Z"/><polygon class="b" points="15.15 15.02 15.58 15.81 14.92 16.98 15.58 18.02 14.94 19.16 13.46 19.16 13.46 19.23 14.98 19.23 15.66 18.02 15 16.98 15.66 15.81 15.21 14.98 15.15 15.02 15.15 15.02"/><polyline class="b" points="15.56 15.73 16.51 15.73 16.51 15.66 15.56 15.66"/><polyline class="b" points="15.56 15.95 16.51 15.95 16.51 15.88 15.56 15.88"/><polygon class="b" points="14.96 16.98 14.89 17 14.89 16.97 14.96 16.98"/><polygon class="b" points="14.81 17.01 14.74 17.02 14.74 16.94 14.81 16.96 14.81 17.01"/><polygon class="b" points="14.67 17.03 14.59 17.05 14.59 16.92 14.67 16.93 14.67 17.03"/><polygon class="b" points="14.52 17.06 14.45 17.07 14.45 16.89 14.52 16.9 14.52 17.06"/><polygon class="b" points="14.37 17.09 14.3 17.1 14.3 16.87 14.37 16.88 14.37 17.09"/><polygon class="b" points="14.23 17.11 14.15 17.13 14.15 16.84 14.23 16.85 14.23 17.11"/><polygon class="b" points="14.08 17.14 14.01 17.15 14.01 16.81 14.08 16.83 14.08 17.14"/><polygon class="b" points="13.93 17.16 13.86 17.18 13.86 16.79 13.93 16.8 13.93 17.16"/><polygon class="b" points="13.79 17.19 13.71 17.2 13.71 16.76 13.79 16.77 13.79 17.19"/><polygon class="b" points="13.64 17.22 13.57 17.23 13.57 16.74 13.64 16.75 13.64 17.22"/><polygon class="b" points="15.62 18.01 15.69 17.99 15.69 18.02 15.62 18.01"/><polygon class="b" points="15.77 17.98 15.84 17.97 15.84 18.05 15.77 18.03 15.77 17.98"/><polygon class="b" points="15.91 17.96 15.99 17.94 15.99 18.07 15.91 18.06 15.91 17.96"/><polygon class="b" points="16.06 17.93 16.13 17.92 16.13 18.1 16.06 18.09 16.06 17.93"/><polygon class="b" points="16.21 17.9 16.28 17.89 16.28 18.12 16.21 18.11 16.21 17.9"/><polygon class="b" points="16.36 17.88 16.43 17.86 16.43 18.15 16.36 18.14 16.36 17.88"/><polygon class="b" points="16.5 17.85 16.58 17.84 16.58 18.18 16.5 18.16 16.5 17.85"/><polygon class="b" points="16.65 17.83 16.72 17.81 16.72 18.2 16.65 18.19 16.65 17.83"/><polygon class="b" points="16.8 17.8 16.87 17.79 16.87 18.23 16.8 18.22 16.8 17.8"/><polygon class="b" points="16.94 17.77 17.02 17.76 17.02 18.25 16.94 18.24 16.94 17.77"/><path class="b" d="M22.81,13.02v.02s-.05,.03-.08,.05c-.03,.02-.06,.05-.06,.1,0,.03,.02,.06,.03,.08,.03,.03,.06,.04,.08,.05l.03,.04v.02s-.05,.03-.08,.05c-.03,.02-.06,.05-.06,.1,0,.03,.02,.06,.03,.08,.03,.03,.06,.04,.08,.05l.03,.04v.02s-.05,.03-.08,.05c-.03,.02-.06,.05-.06,.1,0,.03,.02,.06,.03,.08,.03,.03,.06,.04,.08,.05l.03,.04v.02s-.05,.03-.08,.05c-.03,.02-.06,.05-.06,.1h.07v-.02s.05-.03,.08-.05c.03-.02,.06-.05,.06-.1,0-.03-.02-.06-.03-.08-.03-.03-.06-.04-.08-.05l-.03-.04v-.02s.05-.03,.08-.05c.03-.02,.06-.05,.06-.1,0-.03-.02-.06-.03-.08-.03-.03-.06-.04-.08-.05l-.03-.04v-.02s.05-.03,.08-.05c.03-.02,.06-.05,.06-.1,0-.03-.02-.06-.03-.08-.03-.03-.06-.04-.08-.05l-.03-.04v-.02s.05-.03,.08-.05c.03-.02,.06-.05,.06-.1h-.07Z"/><polyline class="b" points="23.37 15.73 24.33 15.73 24.33 15.66 23.37 15.66"/><polyline class="b" points="23.37 15.95 24.33 15.95 24.33 15.88 23.37 15.88"/><polygon class="b" points="22.78 16.98 21.33 17.24 21.33 16.73 22.78 16.98"/><polygon class="b" points="23.44 18.01 24.89 17.75 24.89 18.26 23.44 18.01"/><polygon class="b" points="22.78 19.19 22.7 19.21 22.7 19.18 22.78 19.19"/><polygon class="b" points="22.63 19.22 22.56 19.23 22.56 19.15 22.63 19.17 22.63 19.22"/><polygon class="b" points="22.48 19.25 22.41 19.26 22.41 19.13 22.48 19.14 22.48 19.25"/><polygon class="b" points="22.34 19.27 22.26 19.28 22.26 19.1 22.34 19.12 22.34 19.27"/><polygon class="b" points="22.19 19.3 22.11 19.31 22.11 19.08 22.19 19.09 22.19 19.3"/><polygon class="b" points="22.04 19.32 21.97 19.34 21.97 19.05 22.04 19.06 22.04 19.32"/><polygon class="b" points="21.89 19.35 21.82 19.36 21.82 19.02 21.89 19.04 21.89 19.35"/><polygon class="b" points="21.75 19.38 21.67 19.39 21.67 19 21.75 19.01 21.75 19.38"/><polygon class="b" points="21.6 19.4 21.53 19.41 21.53 18.97 21.6 18.99 21.6 19.4"/><polygon class="b" points="21.45 19.43 21.38 19.44 21.38 18.95 21.45 18.96 21.45 19.43"/><polygon class="b" points="23.44 20.22 23.51 20.21 23.51 20.23 23.44 20.22"/><polygon class="b" points="23.58 20.19 23.66 20.18 23.66 20.26 23.58 20.24 23.58 20.19"/><polygon class="b" points="23.73 20.17 23.8 20.15 23.8 20.28 23.73 20.27 23.73 20.17"/><polygon class="b" points="23.88 20.14 23.95 20.13 23.95 20.31 23.88 20.3 23.88 20.14"/><polygon class="b" points="24.02 20.11 24.1 20.1 24.1 20.34 24.02 20.32 24.02 20.11"/><polygon class="b" points="24.17 20.09 24.24 20.08 24.24 20.36 24.17 20.35 24.17 20.09"/><polygon class="b" points="24.32 20.06 24.39 20.05 24.39 20.39 24.32 20.37 24.32 20.06"/><polygon class="b" points="24.46 20.04 24.54 20.02 24.54 20.41 24.46 20.4 24.46 20.04"/><polygon class="b" points="24.61 20.01 24.68 20 24.68 20.44 24.61 20.43 24.61 20.01"/><polygon class="b" points="24.76 19.98 24.83 19.97 24.83 20.47 24.76 20.45 24.76 19.98"/><polygon class="b" points="22.96 15.02 23.39 15.81 22.73 16.98 23.39 18.02 22.73 19.19 23.39 20.23 22.75 21.37 21.33 21.37 21.33 21.44 22.8 21.44 23.48 20.23 22.82 19.19 23.48 18.02 22.82 16.98 23.48 15.81 23.03 14.98 22.96 15.02 22.96 15.02"/></g><path class="b" d="M29.86,15h-.14c0,4.07-1.65,7.75-4.31,10.41-2.67,2.67-6.35,4.31-10.41,4.31-4.07,0-7.75-1.65-10.41-4.31C1.92,22.75,.27,19.07,.27,15c0-4.07,1.65-7.75,4.31-10.41C7.25,1.92,10.93,.27,15,.27c4.07,0,7.75,1.65,10.41,4.31,2.67,2.67,4.31,6.35,4.31,10.41h.27C30,6.72,23.28,0,15,0,6.72,0,0,6.72,0,15c0,8.28,6.72,15,15,15,8.28,0,15-6.72,15-15h-.14Z"/></g><g><path class="c" d="M43.75,20.19c.6-.37,1-.89,1.2-1.54l.81,.23c-.23,.81-.72,1.46-1.47,1.95-.75,.48-1.61,.73-2.57,.73-1.26,0-2.33-.43-3.21-1.28s-1.32-1.96-1.32-3.32,.44-2.44,1.33-3.3,1.95-1.29,3.2-1.29c.95,0,1.79,.25,2.54,.75s1.25,1.17,1.52,2.01l-.83,.27c-.2-.69-.6-1.24-1.2-1.63-.6-.39-1.28-.58-2.03-.58-1.02,0-1.88,.35-2.6,1.06s-1.07,1.61-1.07,2.71,.35,2.05,1.06,2.75,1.57,1.04,2.6,1.04c.75,0,1.43-.19,2.03-.56Z"/><path class="c" d="M48.38,21.36V8.43h.88v12.93h-.88Z"/><path class="c" d="M60.54,21.36h-.88v-1.87c-.35,.66-.83,1.17-1.45,1.54-.62,.37-1.33,.55-2.15,.55-1.07,0-1.92-.35-2.57-1.04s-.97-1.61-.97-2.75v-5.21h.86v5.08c0,.92,.25,1.67,.76,2.24,.51,.57,1.18,.85,2.02,.85,1.05,0,1.9-.34,2.53-1.01,.63-.68,.95-1.6,.95-2.76v-4.4h.88v8.78Z"/><path class="c" d="M63.94,18.74c.06,.65,.37,1.16,.92,1.53s1.24,.56,2.07,.56c.74,0,1.34-.16,1.8-.48,.46-.32,.68-.76,.68-1.32,0-.43-.14-.76-.43-1-.29-.23-.7-.41-1.24-.53l-2.16-.47c-1.45-.31-2.17-1.02-2.17-2.14,0-.75,.3-1.37,.89-1.83s1.37-.7,2.33-.7,1.7,.22,2.3,.66c.6,.44,.98,1.01,1.15,1.72l-.81,.22c-.12-.56-.41-1.01-.88-1.35s-1.06-.5-1.78-.5-1.27,.16-1.69,.48c-.42,.32-.63,.74-.63,1.27,0,.43,.14,.75,.41,.97s.68,.38,1.2,.5l2.12,.47c1.5,.35,2.25,1.08,2.25,2.19,0,.8-.31,1.43-.93,1.9-.62,.46-1.44,.69-2.46,.69s-1.9-.23-2.59-.69c-.68-.46-1.08-1.1-1.2-1.91l.86-.22Z"/><path class="c" d="M77.68,20.86c-.61,.47-1.25,.7-1.92,.7-.79,0-1.42-.24-1.9-.71-.48-.47-.72-1.13-.72-1.97v-5.55h-1.92v-.75h1.92v-2.89h.88v2.89h3.29v.75h-3.29v5.5c0,.59,.16,1.05,.49,1.39,.33,.34,.76,.51,1.3,.51s1.06-.2,1.53-.59l.34,.72Z"/><path class="c" d="M87.29,17.05h-7.96c.01,1.13,.38,2.03,1.1,2.71s1.54,1.02,2.48,1.02c1.68,0,2.81-.75,3.41-2.25l.77,.18c-.34,.92-.86,1.63-1.58,2.11-.72,.48-1.59,.73-2.6,.73-1.19,0-2.22-.42-3.11-1.26-.89-.84-1.33-1.94-1.33-3.3s.45-2.49,1.35-3.35c.9-.86,1.96-1.28,3.2-1.28s2.21,.4,3.01,1.21c.8,.81,1.22,1.86,1.27,3.15v.32Zm-6.67-3.02c-.71,.59-1.13,1.37-1.25,2.34h7.04c-.11-1.01-.47-1.79-1.1-2.36-.62-.57-1.39-.85-2.3-.85s-1.69,.29-2.4,.88Z"/><path class="c" d="M95.12,12.56l-.09,.83c-.12-.02-.29-.04-.52-.04-1.16,0-2.07,.42-2.74,1.25-.66,.83-1,1.87-1,3.1v3.66h-.88V12.58h.88v2.46c.37-.77,.88-1.38,1.52-1.84,.64-.46,1.38-.69,2.22-.69,.24,0,.44,.02,.61,.05Z"/><path class="c" d="M119.28,21.36l-4.11-9.68-4.11,9.68h-2.08l5.3-12.03h1.8l5.3,12.03h-2.08Z"/><path class="c" d="M131.92,11c-1.2-1.12-2.82-1.68-4.84-1.68h-4.2v1.74h4.2c1.44,0,2.58,.4,3.43,1.18,.85,.79,1.27,1.82,1.27,3.09s-.42,2.3-1.27,3.09c-.85,.79-1.99,1.18-3.43,1.18h-4.2v1.74h4.2c2.02,0,3.64-.56,4.84-1.68,1.2-1.12,1.8-2.56,1.8-4.34s-.6-3.22-1.8-4.34Z"/><path class="c" d="M102.9,11.07h4.2v-1.74h-4.2c-2.03,0-3.64,.56-4.84,1.68-1.2,1.12-1.8,2.56-1.8,4.34s.6,3.22,1.8,4.34c1.2,1.12,2.82,1.68,4.84,1.68h4.2v-1.74h-4.2c-1.44,0-2.58-.4-3.43-1.18-.85-.79-1.27-1.82-1.27-3.09s.43-2.3,1.27-3.09c.85-.79,1.99-1.18,3.43-1.18Z"/><path class="c" d="M115.17,18.81c-2.52,0-4.89-.95-6.7-2.68l1.04-1.04c1.54,1.45,3.54,2.24,5.66,2.24s4.12-.79,5.66-2.24l1.04,1.04c-1.81,1.73-4.18,2.68-6.7,2.68Z"/></g></svg>