<?xml version="1.0" encoding="UTF-8"?><svg id="a" xmlns="http://www.w3.org/2000/svg" viewBox="0 0 150 20.43"><defs><style>.b{fill:#29abe2;}</style></defs><path class="b" d="M10.19,18.28c.93-.58,1.55-1.38,1.87-2.4l1.26,.36c-.35,1.27-1.12,2.27-2.29,3.03-1.17,.75-2.5,1.13-3.99,1.13-1.95,0-3.61-.66-4.98-1.98-1.37-1.32-2.05-3.04-2.05-5.16s.69-3.8,2.07-5.14c1.38-1.34,3.03-2.01,4.97-2.01,1.47,0,2.79,.39,3.95,1.17,1.16,.78,1.95,1.82,2.36,3.13l-1.28,.42c-.32-1.08-.94-1.92-1.87-2.53-.93-.6-1.98-.91-3.15-.91-1.58,0-2.93,.55-4.03,1.65-1.11,1.1-1.66,2.5-1.66,4.21s.55,3.19,1.65,4.27c1.1,1.08,2.45,1.62,4.05,1.62,1.17,0,2.22-.29,3.15-.87Z"/><path class="b" d="M17.39,20.1V0h1.37V20.1h-1.37Z"/><path class="b" d="M36.29,20.1h-1.37v-2.9c-.54,1.02-1.29,1.82-2.25,2.39-.96,.57-2.07,.85-3.34,.85-1.66,0-2.99-.54-3.99-1.62s-1.51-2.5-1.51-4.27V6.45h1.34v7.9c0,1.43,.4,2.59,1.19,3.48,.79,.88,1.84,1.33,3.14,1.33,1.64,0,2.95-.53,3.94-1.58,.99-1.05,1.48-2.48,1.48-4.28V6.45h1.37v13.65Z"/><path class="b" d="M41.56,16.02c.09,1,.57,1.8,1.42,2.37s1.93,.87,3.21,.87c1.15,0,2.08-.25,2.79-.74,.71-.49,1.06-1.18,1.06-2.05,0-.67-.22-1.19-.67-1.55-.45-.36-1.09-.64-1.93-.82l-3.35-.73c-2.25-.48-3.38-1.59-3.38-3.32,0-1.17,.46-2.12,1.38-2.85s2.13-1.09,3.61-1.09,2.64,.34,3.57,1.02c.93,.68,1.53,1.57,1.79,2.67l-1.26,.33c-.19-.87-.64-1.57-1.37-2.09s-1.65-.78-2.76-.78-1.97,.25-2.62,.74c-.65,.49-.98,1.15-.98,1.97,0,.67,.21,1.17,.64,1.51s1.05,.6,1.87,.78l3.29,.73c2.33,.54,3.49,1.67,3.49,3.41,0,1.25-.48,2.23-1.45,2.94-.97,.72-2.24,1.07-3.82,1.07s-2.96-.36-4.02-1.07c-1.06-.72-1.68-1.71-1.87-2.97l1.34-.33Z"/><path class="b" d="M62.91,19.31c-.95,.73-1.94,1.09-2.99,1.09-1.23,0-2.21-.37-2.96-1.1-.74-.73-1.12-1.75-1.12-3.06V7.62h-2.99v-1.17h2.99V1.95h1.37V6.45h5.11v1.17h-5.11v8.54c0,.91,.26,1.63,.77,2.16,.51,.53,1.19,.8,2.02,.8s1.65-.31,2.37-.92l.53,1.12Z"/><path class="b" d="M77.85,13.4h-12.36c.02,1.75,.59,3.15,1.7,4.21s2.4,1.59,3.85,1.59c2.6,0,4.37-1.16,5.3-3.49l1.2,.28c-.52,1.43-1.34,2.53-2.46,3.28-1.12,.75-2.47,1.13-4.05,1.13-1.84,0-3.45-.65-4.83-1.95-1.38-1.3-2.07-3.01-2.07-5.14s.7-3.88,2.09-5.21c1.4-1.33,3.05-2,4.97-2s3.44,.63,4.67,1.88c1.24,1.26,1.89,2.89,1.97,4.9v.5Zm-10.37-4.69c-1.11,.91-1.75,2.12-1.94,3.63h10.94c-.17-1.56-.73-2.79-1.7-3.67-.97-.88-2.16-1.33-3.57-1.33s-2.62,.46-3.73,1.37Z"/><path class="b" d="M90.02,6.42l-.14,1.28c-.19-.04-.46-.06-.81-.06-1.81,0-3.22,.65-4.26,1.94-1.03,1.29-1.55,2.9-1.55,4.81v5.69h-1.37V6.45h1.37v3.82c.58-1.19,1.36-2.14,2.36-2.86,1-.72,2.14-1.07,3.45-1.07,.37,0,.69,.03,.95,.08Z"/><path class="b" d="M127.56,20.1l-6.39-15.04-6.39,15.04h-3.24L119.77,1.4h2.79l8.23,18.7h-3.24Z"/><path class="b" d="M147.2,4.01c-1.87-1.74-4.38-2.61-7.52-2.61h-6.53v2.71h6.53c2.23,0,4.01,.61,5.33,1.84,1.32,1.23,1.98,2.83,1.98,4.8s-.66,3.57-1.98,4.8c-1.32,1.23-3.1,1.84-5.33,1.84h-6.53v2.71h6.53c3.14,0,5.65-.87,7.52-2.61,1.87-1.74,2.8-3.99,2.8-6.74s-.93-5-2.8-6.74Z"/><path class="b" d="M102.11,4.1h6.53V1.39h-6.53c-3.15,0-5.65,.87-7.52,2.61-1.87,1.74-2.8,3.99-2.8,6.74s.94,5,2.8,6.74c1.87,1.74,4.38,2.61,7.52,2.61h6.53v-2.71h-6.53c-2.24,0-4.01-.61-5.33-1.84-1.32-1.23-1.98-2.83-1.98-4.8s.66-3.57,1.98-4.8c1.32-1.23,3.1-1.84,5.33-1.84Z"/><path class="b" d="M121.17,16.13c-3.91,0-7.59-1.47-10.41-4.16l1.62-1.61c2.39,2.25,5.5,3.49,8.8,3.49s6.41-1.24,8.8-3.49l1.62,1.61c-2.82,2.68-6.5,4.16-10.41,4.16Z"/></svg>